<svg width="85" height="130" viewBox="0 0 85 130" fill="none" xmlns="http://www.w3.org/2000/svg">
<circle cx="2.83333" cy="2.83333" r="2.83333" fill="#000051"/>
<circle cx="18.7" cy="2.83333" r="2.83333" fill="#000051"/>
<circle cx="34.5667" cy="2.83333" r="2.83333" fill="#000051"/>
<circle cx="50.4334" cy="2.83333" r="2.83333" fill="#000051"/>
<circle cx="66.3001" cy="2.83333" r="2.83333" fill="#000051"/>
<circle cx="82.1668" cy="2.83333" r="2.83333" fill="#000051"/>
<circle cx="2.83333" cy="18.1334" r="2.83333" fill="#000051"/>
<circle cx="18.7" cy="18.1334" r="2.83333" fill="#000051"/>
<circle cx="34.5667" cy="18.1334" r="2.83333" fill="#000051"/>
<circle cx="50.4334" cy="18.1334" r="2.83333" fill="#000051"/>
<circle cx="66.3001" cy="18.1334" r="2.83333" fill="#000051"/>
<circle cx="82.1668" cy="18.1334" r="2.83333" fill="#000051"/>
<circle cx="2.83333" cy="33.4334" r="2.83333" fill="#000051"/>
<circle cx="18.7" cy="33.4334" r="2.83333" fill="#000051"/>
<circle cx="34.5667" cy="33.4334" r="2.83333" fill="#000051"/>
<circle cx="50.4334" cy="33.4334" r="2.83333" fill="#000051"/>
<circle cx="66.3001" cy="33.4334" r="2.83333" fill="#000051"/>
<circle cx="82.1668" cy="33.4334" r="2.83333" fill="#000051"/>
<circle cx="2.83333" cy="48.7332" r="2.83333" fill="#000051"/>
<circle cx="18.7" cy="48.7332" r="2.83333" fill="#000051"/>
<circle cx="34.5667" cy="48.7332" r="2.83333" fill="#000051"/>
<circle cx="50.4334" cy="48.7332" r="2.83333" fill="#000051"/>
<circle cx="66.3001" cy="48.7332" r="2.83333" fill="#000051"/>
<circle cx="82.1668" cy="48.7332" r="2.83333" fill="#000051"/>
<circle cx="2.83333" cy="64.0333" r="2.83333" fill="#000051"/>
<circle cx="18.7" cy="64.0333" r="2.83333" fill="#000051"/>
<circle cx="34.5667" cy="64.0333" r="2.83333" fill="#000051"/>
<circle cx="50.4334" cy="64.0333" r="2.83333" fill="#000051"/>
<circle cx="66.3001" cy="64.0333" r="2.83333" fill="#000051"/>
<circle cx="82.1668" cy="64.0333" r="2.83333" fill="#000051"/>
<circle cx="2.83333" cy="79.3333" r="2.83333" fill="#000051"/>
<circle cx="18.7" cy="79.3333" r="2.83333" fill="#000051"/>
<circle cx="34.5667" cy="79.3333" r="2.83333" fill="#000051"/>
<circle cx="50.4334" cy="79.3333" r="2.83333" fill="#000051"/>
<circle cx="66.3001" cy="79.3333" r="2.83333" fill="#000051"/>
<circle cx="82.1668" cy="79.3333" r="2.83333" fill="#000051"/>
<circle cx="2.83333" cy="95.8895" r="2.83333" fill="#000051"/>
<circle cx="18.7" cy="95.8895" r="2.83333" fill="#000051"/>
<circle cx="34.5667" cy="95.8895" r="2.83333" fill="#000051"/>
<circle cx="50.4334" cy="95.8895" r="2.83333" fill="#000051"/>
<circle cx="66.3001" cy="95.8895" r="2.83333" fill="#000051"/>
<circle cx="82.1668" cy="95.8895" r="2.83333" fill="#000051"/>
<circle cx="2.83333" cy="111.19" r="2.83333" fill="#000051"/>
<circle cx="18.7" cy="111.19" r="2.83333" fill="#000051"/>
<circle cx="34.5667" cy="111.19" r="2.83333" fill="#000051"/>
<circle cx="50.4334" cy="111.19" r="2.83333" fill="#000051"/>
<circle cx="66.3001" cy="111.19" r="2.83333" fill="#000051"/>
<circle cx="82.1668" cy="111.19" r="2.83333" fill="#000051"/>
<circle cx="2.83333" cy="126.49" r="2.83333" fill="#000051"/>
<circle cx="18.7" cy="126.49" r="2.83333" fill="#000051"/>
<circle cx="34.5667" cy="126.49" r="2.83333" fill="#000051"/>
<circle cx="50.4334" cy="126.49" r="2.83333" fill="#000051"/>
<circle cx="66.3001" cy="126.49" r="2.83333" fill="#000051"/>
<circle cx="82.1668" cy="126.49" r="2.83333" fill="#000051"/>
</svg>
