<svg width="194" height="191" viewBox="0 0 194 191" fill="none" xmlns="http://www.w3.org/2000/svg">
<path d="M128.712 189.846L133.792 190.38L133.844 189.882L136.384 190.15C137.096 190.224 137.804 190.242 138.502 190.206L138.528 190.705C140.013 190.628 141.457 190.315 142.813 189.794L142.634 189.327C143.956 188.818 145.191 188.105 146.292 187.213L146.606 187.602C147.736 186.688 148.729 185.593 149.538 184.345L149.118 184.073C149.499 183.486 149.838 182.864 150.129 182.21L151.168 179.876L151.624 180.079L153.702 175.41L153.245 175.207L155.323 170.538L155.78 170.741L157.857 166.072L157.401 165.869L159.478 161.2L159.935 161.404L162.012 156.735L161.556 156.531L163.633 151.863L164.09 152.066L166.168 147.397L165.711 147.194L167.789 142.525L168.245 142.728L170.323 138.059L169.866 137.856L171.944 133.187L172.401 133.39L174.478 128.722L174.021 128.518L176.099 123.85L176.556 124.053L178.633 119.384L178.177 119.181L180.254 114.512L180.711 114.715L182.789 110.046L182.332 109.843L184.41 105.174L184.866 105.377L186.944 100.709L186.487 100.505L188.565 95.8365L189.021 96.0398L191.099 91.3709L190.642 91.1676L191.681 88.8332C191.972 88.1791 192.208 87.5114 192.389 86.836L192.872 86.9655C193.257 85.5295 193.406 84.0595 193.329 82.609L192.83 82.6354C192.756 81.221 192.459 79.8259 191.952 78.5035L192.419 78.3244C191.899 76.9682 191.166 75.6859 190.231 74.5309L189.842 74.8458C189.402 74.3025 188.916 73.7884 188.384 73.3094L186.486 71.5994L186.821 71.2278L183.024 67.8079L182.69 68.1796L178.894 64.7597L179.228 64.388L175.432 60.9682L175.097 61.3398L171.301 57.9199L171.636 57.5483L167.84 54.1284L167.505 54.5001L163.709 51.0802L164.044 50.7085L160.247 47.2887L159.913 47.6603L156.117 44.2404L156.451 43.8688L152.655 40.4489L152.32 40.8206L148.524 37.4007L148.859 37.029L145.063 33.6092L144.728 33.9808L140.932 30.561L141.266 30.1893L137.47 26.7694L137.136 27.1411L133.34 23.7212L133.674 23.3495L129.878 19.9297L129.543 20.3013L125.747 16.8815L126.082 16.5098L122.286 13.0899L121.951 13.4616L118.155 10.0417L118.489 9.67006L114.693 6.25018L114.359 6.62184L112.461 4.91191C111.929 4.43279 111.367 4.00239 110.781 3.62128L111.053 3.20194C109.807 2.3917 108.455 1.79596 107.052 1.42045L106.923 1.90354C105.555 1.53738 104.137 1.38835 102.723 1.4622L102.697 0.96278C101.246 1.03851 99.8001 1.34025 98.4125 1.87376L98.5917 2.34056C97.9391 2.59151 97.2997 2.89568 96.6798 3.25377L94.4681 4.53141L94.2181 4.09834L89.7946 6.65361L90.0445 7.08668L85.621 9.64194L85.3711 9.20887L80.9475 11.7641L81.1974 12.1972L76.7739 14.7525L76.524 14.3194L72.1004 16.8747L72.3503 17.3077L67.9268 19.863L67.6769 19.4299L63.2533 21.9852L63.5032 22.4183L59.0797 24.9735L58.8298 24.5405L54.4062 27.0957L54.6561 27.5288L50.2326 30.0841L49.9827 29.651L45.5592 32.2063L45.8091 32.6393L41.3855 35.1946L41.1356 34.7615L36.7121 37.3168L36.962 37.7499L32.5384 40.3051L32.2885 39.8721L27.865 42.4273L28.1149 42.8604L23.6913 45.4157L23.4414 44.9826L19.0179 47.5379L19.2678 47.9709L14.8442 50.5262L14.5943 50.0931L10.1708 52.6484L10.4207 53.0815L8.20892 54.3591C7.589 54.7172 7.00606 55.1191 6.46251 55.5591L6.14808 55.1704C4.99251 56.106 4.00823 57.2082 3.21754 58.427L3.63684 58.6992C2.86582 59.8876 2.28566 61.1911 1.91865 62.5594L1.43583 62.4299C1.05945 63.8332 0.89923 65.3023 0.977461 66.7872L1.47667 66.7608C1.51346 67.4593 1.60499 68.1615 1.75377 68.8618L2.28481 71.3615L1.79583 71.4655L2.85789 76.4648L3.34688 76.3607L4.40894 81.3599L3.91996 81.464L4.98203 86.4632L5.47101 86.3592L6.53308 91.3584L6.0441 91.4625L7.10617 96.4617L7.59514 96.3576L8.65721 101.357L8.16823 101.461L9.23029 106.46L9.71928 106.356L10.7813 111.355L10.2924 111.459L11.3544 116.459L11.8434 116.355L12.9055 121.354L12.4165 121.458L13.4786 126.457L13.9675 126.353L15.0296 131.352L14.5406 131.456L15.6027 136.456L16.0917 136.352L17.1537 141.351L16.6648 141.455L17.7268 146.454L18.2158 146.35L19.2779 151.349L18.7889 151.453L19.851 156.453L20.3399 156.348L21.402 161.348L20.913 161.452L21.9751 166.451L22.4641 166.347L22.9951 168.847C23.1439 169.547 23.3457 170.225 23.5959 170.878L23.1291 171.057C23.6611 172.445 24.4045 173.722 25.3184 174.85L25.7069 174.535C26.598 175.636 27.6575 176.59 28.8446 177.362L28.5721 177.781C29.7894 178.573 31.1362 179.179 32.5717 179.563L32.701 179.08C33.3762 179.261 34.0719 179.39 34.7836 179.465L37.3236 179.732L37.2712 180.23L42.3512 180.764L42.4036 180.267L47.4837 180.801L47.4313 181.298L52.5113 181.832L52.5637 181.335L57.6437 181.869L57.5914 182.367L62.6714 182.901L62.7238 182.403L67.8038 182.938L67.7514 183.435L72.8315 183.969L72.8838 183.472L77.9639 184.006L77.9115 184.503L82.9916 185.038L83.0439 184.54L88.124 185.075L88.0716 185.572L93.1516 186.106L93.204 185.609L98.284 186.143L98.2317 186.64L103.312 187.175L103.364 186.677L108.444 187.211L108.392 187.709L113.472 188.243L113.524 187.746L118.604 188.28L118.552 188.777L123.632 189.311L123.684 188.814L128.764 189.348L128.712 189.846Z" stroke="#E0E0E0" stroke-dasharray="5 5"/>
</svg>
