<svg width="308" height="305" viewBox="0 0 308 305" fill="none" xmlns="http://www.w3.org/2000/svg">
<path d="M199.373 62.0135L204.418 61.9057L204.429 62.4056L206.951 62.3517C207.667 62.3364 208.374 62.3777 209.067 62.4721L209.134 61.9767C210.607 62.1773 212.02 62.6093 213.328 63.2412L213.11 63.6914C214.385 64.3077 215.557 65.1212 216.58 66.1008L216.926 65.7397C217.975 66.7442 218.873 67.9172 219.576 69.2273L219.135 69.4636C219.466 70.0798 219.751 70.7276 219.987 71.4036L220.818 73.7861L221.29 73.6215L222.952 78.3867L222.479 78.5513L224.141 83.3164L224.613 83.1518L226.275 87.917L225.803 88.0816L227.464 92.8468L227.936 92.6821L229.598 97.4473L229.126 97.6119L230.788 102.377L231.26 102.212L232.921 106.978L232.449 107.142L234.111 111.907L234.583 111.743L236.245 116.508L235.773 116.673L237.434 121.438L237.906 121.273L239.568 126.038L239.096 126.203L240.758 130.968L241.23 130.803L242.891 135.569L242.419 135.733L244.081 140.498L244.553 140.334L246.215 145.099L245.743 145.264L247.404 150.029L247.876 149.864L249.538 154.629L249.066 154.794L250.728 159.559L251.2 159.394L252.861 164.16L252.389 164.324L254.051 169.089L254.523 168.925L256.185 173.69L255.712 173.855L257.374 178.62L257.846 178.455L259.508 183.22L259.036 183.385L259.867 185.767C260.102 186.443 260.281 187.128 260.406 187.816L260.898 187.728C261.162 189.19 261.188 190.668 260.991 192.107L260.496 192.039C260.304 193.442 259.892 194.808 259.276 196.083L259.727 196.301C259.096 197.609 258.258 198.826 257.229 199.899L256.868 199.553C256.384 200.057 255.856 200.529 255.286 200.962L253.277 202.489L253.579 202.887L249.561 205.94L249.258 205.541L245.24 208.594L245.542 208.992L241.524 212.045L241.221 211.647L237.203 214.7L237.505 215.098L233.487 218.151L233.184 217.753L229.166 220.806L229.469 221.204L225.45 224.257L225.148 223.859L221.129 226.911L221.432 227.31L217.413 230.362L217.111 229.964L213.092 233.017L213.395 233.415L209.376 236.468L209.074 236.07L205.055 239.123L205.358 239.521L201.339 242.574L201.037 242.176L197.018 245.228L197.321 245.627L193.302 248.679L193 248.281L188.981 251.334L189.284 251.732L185.265 254.785L184.963 254.387L180.945 257.44L181.247 257.838L177.229 260.891L176.926 260.493L172.908 263.545L173.21 263.944L169.192 266.996L168.889 266.598L164.871 269.651L165.173 270.049L161.155 273.102L160.852 272.704L158.843 274.23C158.273 274.663 157.677 275.045 157.061 275.376L157.298 275.817C155.988 276.52 154.591 277.001 153.161 277.259L153.073 276.767C151.679 277.018 150.253 277.048 148.85 276.857L148.782 277.352C147.343 277.156 145.927 276.735 144.588 276.088L144.806 275.638C144.176 275.334 143.564 274.978 142.976 274.569L140.904 273.13L140.619 273.541L136.473 270.663L136.759 270.252L132.613 267.373L132.328 267.784L128.183 264.906L128.468 264.495L124.323 261.617L124.038 262.027L119.893 259.149L120.178 258.738L116.033 255.86L115.747 256.271L111.602 253.392L111.887 252.981L107.742 250.103L107.457 250.514L103.312 247.635L103.597 247.225L99.4519 244.346L99.1667 244.757L95.0215 241.879L95.3067 241.468L91.1615 238.589L90.8763 239L86.7311 236.122L87.0163 235.711L82.8711 232.833L82.5859 233.243L78.4407 230.365L78.7259 229.954L74.5807 227.076L74.2955 227.487L70.1503 224.608L70.4355 224.197L66.2903 221.319L66.0051 221.73L61.8599 218.851L62.1451 218.441L57.9999 215.562L57.7147 215.973L53.5695 213.095L53.8547 212.684L49.7095 209.805L49.4243 210.216L45.2791 207.338L45.5643 206.927L43.4917 205.488C42.9037 205.08 42.3562 204.631 41.8511 204.147L41.5053 204.508C40.4316 203.48 39.5424 202.3 38.8559 201.02L39.2965 200.784C38.6271 199.536 38.1574 198.189 37.9056 196.795L37.4136 196.884C37.1554 195.455 37.1181 193.978 37.3197 192.505L37.8151 192.573C37.9099 191.88 38.0596 191.188 38.2662 190.503L38.9945 188.087L38.5158 187.942L39.9724 183.111L40.4511 183.255L41.9077 178.423L41.429 178.279L42.8856 173.447L43.3643 173.591L44.8209 168.76L44.3421 168.615L45.7987 163.783L46.2774 163.928L47.734 159.096L47.2553 158.952L48.7119 154.12L49.1906 154.264L50.6472 149.432L50.1685 149.288L51.6251 144.456L52.1038 144.601L53.5604 139.769L53.0817 139.624L54.5382 134.793L55.017 134.937L56.4735 130.105L55.9948 129.961L57.4514 125.129L57.9301 125.273L59.3867 120.442L58.908 120.297L60.3646 115.465L60.8433 115.61L62.2999 110.778L61.8212 110.634L63.2777 105.802L63.7565 105.946L65.2131 101.114L64.7343 100.97L66.1909 96.1383L66.6696 96.2827L68.1262 91.4509L67.6475 91.3065L69.1041 86.4748L69.5828 86.6191L71.0394 81.7873L70.5607 81.643L72.0173 76.8112L72.496 76.9555L73.2243 74.5396C73.4309 73.8542 73.6886 73.1948 73.9924 72.565L73.5421 72.3477C74.1881 71.0088 75.0355 69.7985 76.0407 68.7501L76.4016 69.0961C77.3818 68.0738 78.5175 67.2109 79.7653 66.5408L79.5287 66.1003C80.8082 65.413 82.2014 64.9211 83.6645 64.6577L83.7531 65.1498C84.4413 65.0259 85.1456 64.9545 85.8613 64.9392L88.384 64.8853L88.3733 64.3854L93.4187 64.2776L93.4294 64.7774L98.4748 64.6696L98.4642 64.1698L103.51 64.0619L103.52 64.5618L108.566 64.454L108.555 63.9541L113.6 63.8463L113.611 64.3462L118.657 64.2384L118.646 63.7385L123.691 63.6307L123.702 64.1306L128.747 64.0228L128.737 63.5229L133.782 63.4151L133.793 63.915L138.838 63.8072L138.828 63.3073L143.873 63.1995L143.884 63.6993L148.929 63.5915L148.918 63.0916L153.964 62.9838L153.974 63.4837L159.02 63.3759L159.009 62.876L164.055 62.7682L164.065 63.2681L169.111 63.1603L169.1 62.6604L174.145 62.5526L174.156 63.0525L179.202 62.9447L179.191 62.4448L184.236 62.337L184.247 62.8369L189.292 62.729L189.282 62.2292L194.327 62.1214L194.338 62.6212L199.383 62.5134L199.373 62.0135Z" stroke="#E0E0E0" stroke-dasharray="5 5"/>
</svg>
