<svg width="462" height="462" viewBox="0 0 462 462" fill="none" xmlns="http://www.w3.org/2000/svg">
<path d="M313.691 91.4099L318.42 92.4388L318.313 92.9273L320.677 93.4417C321.548 93.6312 322.391 93.9047 323.196 94.2551L323.395 93.7967C325.081 94.5305 326.606 95.5895 327.882 96.9124L327.522 97.2595C328.132 97.8913 328.683 98.5855 329.164 99.335L330.472 101.37L330.893 101.1L333.509 105.171L333.088 105.441L335.704 109.512L336.124 109.242L338.74 113.312L338.32 113.583L340.935 117.654L341.356 117.383L343.972 121.454L343.551 121.724L346.167 125.795L346.588 125.525L349.204 129.596L348.783 129.866L351.399 133.937L351.819 133.666L354.435 137.737L354.015 138.007L356.63 142.078L357.051 141.808L359.667 145.879L359.246 146.149L361.862 150.22L362.283 149.95L364.898 154.02L364.478 154.291L367.094 158.361L367.514 158.091L370.13 162.162L369.709 162.432L372.325 166.503L372.746 166.233L375.362 170.303L374.941 170.574L377.557 174.645L377.978 174.374L380.593 178.445L380.173 178.715L382.789 182.786L383.209 182.516L385.825 186.587L385.404 186.857L388.02 190.928L388.441 190.657L391.057 194.728L390.636 194.998L391.944 197.034C392.425 197.783 392.828 198.573 393.149 199.39L393.615 199.207C394.288 200.917 394.617 202.745 394.584 204.582L394.084 204.574C394.069 205.451 393.967 206.332 393.778 207.202L393.263 209.566L393.752 209.673L392.723 214.401L392.235 214.294L391.206 219.023L391.694 219.129L390.666 223.857L390.177 223.751L389.148 228.479L389.637 228.585L388.608 233.313L388.119 233.207L387.091 237.935L387.579 238.041L386.55 242.77L386.062 242.663L385.033 247.391L385.521 247.498L384.493 252.226L384.004 252.12L382.975 256.848L383.464 256.954L382.435 261.682L381.946 261.576L380.918 266.304L381.406 266.41L380.377 271.138L379.889 271.032L378.86 275.76L379.349 275.867L378.32 280.595L377.831 280.488L376.802 285.216L377.291 285.323L376.262 290.051L375.774 289.945L374.745 294.673L375.233 294.779L374.205 299.507L373.716 299.401L372.687 304.129L373.176 304.235L372.147 308.964L371.658 308.857L370.629 313.585L371.118 313.692L370.089 318.42L369.601 318.313L369.086 320.678C368.897 321.548 368.623 322.391 368.273 323.196L368.731 323.396C367.998 325.081 366.939 326.606 365.616 327.882L365.268 327.523C364.637 328.132 363.942 328.683 363.193 329.165L361.158 330.472L361.428 330.893L357.357 333.509L357.087 333.088L353.016 335.704L353.286 336.125L349.216 338.741L348.945 338.32L344.874 340.936L345.145 341.356L341.074 343.972L340.804 343.552L336.733 346.167L337.003 346.588L332.932 349.204L332.662 348.783L328.591 351.399L328.862 351.82L324.791 354.435L324.521 354.015L320.45 356.631L320.72 357.051L316.649 359.667L316.379 359.246L312.308 361.862L312.578 362.283L308.508 364.899L308.237 364.478L304.167 367.094L304.437 367.514L300.366 370.13L300.096 369.71L296.025 372.325L296.295 372.746L292.225 375.362L291.954 374.941L287.883 377.557L288.154 377.978L284.083 380.594L283.813 380.173L279.742 382.789L280.012 383.209L275.941 385.825L275.671 385.405L271.6 388.02L271.871 388.441L267.8 391.057L267.53 390.636L265.494 391.944C264.745 392.426 263.955 392.828 263.138 393.15L263.321 393.615C261.611 394.288 259.783 394.617 257.945 394.585L257.954 394.085C257.077 394.069 256.196 393.967 255.326 393.778L252.962 393.264L252.855 393.752L248.127 392.723L248.234 392.235L243.505 391.206L243.399 391.695L238.671 390.666L238.777 390.177L234.049 389.148L233.943 389.637L229.215 388.608L229.321 388.12L224.593 387.091L224.487 387.579L219.758 386.551L219.865 386.062L215.137 385.033L215.03 385.522L210.302 384.493L210.408 384.004L205.68 382.975L205.574 383.464L200.846 382.435L200.952 381.947L196.224 380.918L196.118 381.406L191.39 380.378L191.496 379.889L186.768 378.86L186.661 379.349L181.933 378.32L182.04 377.831L177.312 376.803L177.205 377.291L172.477 376.262L172.583 375.774L167.855 374.745L167.749 375.234L163.021 374.205L163.127 373.716L158.399 372.687L158.293 373.176L153.564 372.147L153.671 371.659L148.943 370.63L148.836 371.118L144.108 370.089L144.215 369.601L141.85 369.086C140.98 368.897 140.137 368.624 139.332 368.273L139.132 368.732C137.447 367.998 135.922 366.939 134.646 365.616L135.005 365.269C134.396 364.637 133.845 363.943 133.363 363.193L132.056 361.158L131.635 361.428L129.019 357.357L129.44 357.087L126.824 353.016L126.403 353.287L123.787 349.216L124.208 348.945L121.592 344.875L121.172 345.145L118.556 341.074L118.976 340.804L116.361 336.733L115.94 337.003L113.324 332.933L113.745 332.662L111.129 328.592L110.708 328.862L108.093 324.791L108.513 324.521L105.897 320.45L105.477 320.72L102.861 316.649L103.282 316.379L100.666 312.308L100.245 312.579L97.6293 308.508L98.05 308.238L95.4342 304.167L95.0135 304.437L92.3977 300.366L92.8183 300.096L90.2025 296.025L89.7819 296.296L87.1661 292.225L87.5867 291.954L84.9709 287.884L84.5503 288.154L81.9344 284.083L82.3551 283.813L79.7393 279.742L79.3186 280.012L76.7028 275.942L77.1235 275.671L74.5076 271.601L74.087 271.871L71.4712 267.8L71.8918 267.53L70.5839 265.494C70.1023 264.745 69.6997 263.955 69.3783 263.138L68.913 263.322C68.2401 261.611 67.9105 259.784 67.9434 257.946L68.4433 257.955C68.4591 257.077 68.5605 256.197 68.7499 255.326L69.2643 252.962L68.7758 252.856L69.8046 248.127L70.2931 248.234L71.322 243.506L70.8334 243.399L71.8622 238.671L72.3508 238.778L73.3796 234.049L72.891 233.943L73.9198 229.215L74.4084 229.321L75.4372 224.593L74.9487 224.487L75.9775 219.759L76.466 219.865L77.4949 215.137L77.0063 215.031L78.0351 210.302L78.5237 210.409L79.5525 205.681L79.0639 205.574L80.0927 200.846L80.5813 200.952L81.6101 196.224L81.1216 196.118L82.1504 191.39L82.6389 191.496L83.6678 186.768L83.1792 186.662L84.208 181.934L84.6966 182.04L85.7254 177.312L85.2368 177.205L86.2656 172.477L86.7542 172.584L87.783 167.855L87.2945 167.749L88.3233 163.021L88.8118 163.127L89.8407 158.399L89.3521 158.293L90.3809 153.565L90.8695 153.671L91.8983 148.943L91.4097 148.837L92.4385 144.108L92.9271 144.215L93.4415 141.851C93.6309 140.98 93.9045 140.137 94.2549 139.332L93.7965 139.133C94.5303 137.447 95.5893 135.922 96.9121 134.646L97.2593 135.006C97.8911 134.396 98.5853 133.845 99.3348 133.364L101.37 132.056L101.1 131.635L105.171 129.019L105.441 129.44L109.512 126.824L109.241 126.404L113.312 123.788L113.583 124.208L117.653 121.593L117.383 121.172L121.454 118.556L121.724 118.977L125.795 116.361L125.525 115.94L129.595 113.324L129.866 113.745L133.936 111.129L133.666 110.709L137.737 108.093L138.007 108.513L142.078 105.898L141.808 105.477L145.879 102.861L146.149 103.282L150.22 100.666L149.949 100.245L154.02 97.6295L154.29 98.0502L158.361 95.4344L158.091 95.0137L162.162 92.3979L162.432 92.8186L166.503 90.2027L166.232 89.7821L170.303 87.1663L170.574 87.5869L174.644 84.9711L174.374 84.5505L178.445 81.9347L178.715 82.3553L182.786 79.7395L182.516 79.3188L186.586 76.703L186.857 77.1237L190.927 74.5079L190.657 74.0872L194.728 71.4714L194.998 71.892L197.034 70.5841C197.783 70.1025 198.573 69.6999 199.39 69.3785L199.206 68.9132C200.917 68.2403 202.744 67.9108 204.582 67.9436L204.573 68.4436C205.451 68.4593 206.331 68.5607 207.202 68.7501L209.566 69.2645L209.672 68.776L214.401 69.8048L214.294 70.2934L219.022 71.3222L219.129 70.8336L223.857 71.8624L223.75 72.351L228.479 73.3798L228.585 72.8912L233.313 73.9201L233.207 74.4086L237.935 75.4374L238.041 74.9489L242.769 75.9777L242.663 76.4663L247.391 77.4951L247.497 77.0065L252.226 78.0353L252.119 78.5239L256.847 79.5527L256.954 79.0641L261.682 80.093L261.576 80.5815L266.304 81.6103L266.41 81.1218L271.138 82.1506L271.032 82.6392L275.76 83.668L275.866 83.1794L280.594 84.2082L280.488 84.6968L285.216 85.7256L285.323 85.237L290.051 86.2659L289.944 86.7544L294.673 87.7832L294.779 87.2947L299.507 88.3235L299.401 88.8121L304.129 89.8409L304.235 89.3523L308.963 90.3811L308.857 90.8697L313.585 91.8985L313.691 91.4099Z" stroke="#E0E0E0" stroke-dasharray="5 5"/>
</svg>
