<svg width="56" height="40" viewBox="0 0 56 40" fill="none" xmlns="http://www.w3.org/2000/svg">
<rect opacity="0.3" width="40" height="40" rx="5" fill="#00C853"/>
<rect x="9" width="40" height="40" rx="5" fill="white"/>
<rect x="16" width="40" height="40" rx="5" fill="#00C853"/>
<path d="M28.2227 31H43.7773C45.5543 31 47 29.5543 47 27.7773V12.2227C47 10.4457 45.5543 9 43.7773 9H28.2227C26.4457 9 25 10.4457 25 12.2227V27.7773C25 29.5543 26.4457 31 28.2227 31ZM26.2891 12.2227C26.2891 11.1565 27.1565 10.2891 28.2227 10.2891H43.7773C44.8435 10.2891 45.7109 11.1565 45.7109 12.2227V27.7773C45.7109 28.8435 44.8435 29.7109 43.7773 29.7109H28.2227C27.1565 29.7109 26.2891 28.8435 26.2891 27.7773V12.2227Z" fill="white"/>
<path d="M36 25.8008C39.1985 25.8008 41.8008 23.1985 41.8008 20C41.8008 16.8015 39.1985 14.1992 36 14.1992C32.8015 14.1992 30.1992 16.8015 30.1992 20C30.1992 23.1985 32.8015 25.8008 36 25.8008ZM36 15.4883C38.4878 15.4883 40.5117 17.5122 40.5117 20C40.5117 22.4878 38.4878 24.5117 36 24.5117C33.5122 24.5117 31.4883 22.4878 31.4883 20C31.4883 17.5122 33.5122 15.4883 36 15.4883Z" fill="white"/>
<path d="M42.4453 15.4883C43.5115 15.4883 44.3789 14.6208 44.3789 13.5547C44.3789 12.4885 43.5115 11.6211 42.4453 11.6211C41.3792 11.6211 40.5117 12.4885 40.5117 13.5547C40.5117 14.6208 41.3792 15.4883 42.4453 15.4883ZM42.4453 12.9102C42.8006 12.9102 43.0898 13.1994 43.0898 13.5547C43.0898 13.91 42.8006 14.1992 42.4453 14.1992C42.09 14.1992 41.8008 13.91 41.8008 13.5547C41.8008 13.1994 42.09 12.9102 42.4453 12.9102Z" fill="white"/>
</svg>
