<svg width="56" height="40" viewBox="0 0 56 40" fill="none" xmlns="http://www.w3.org/2000/svg">
<rect opacity="0.3" width="40" height="40" rx="5" fill="#2960EF"/>
<rect x="9" width="40" height="40" rx="5" fill="white"/>
<rect x="16" width="40" height="40" rx="5" fill="#2960EF"/>
<g clip-path="url(#clip0)">
<path d="M45.8217 24.4726C45.768 24.3825 45.4355 23.66 43.8354 22.1749C42.1602 20.6198 42.3852 20.8723 44.4029 18.1833C45.6317 16.5457 46.123 15.5456 45.9693 15.1181C45.823 14.7106 44.9192 14.8181 44.9192 14.8181L41.914 14.8356C41.914 14.8356 41.6914 14.8056 41.5252 14.9043C41.3639 15.0018 41.2602 15.2269 41.2602 15.2269C41.2602 15.2269 40.7839 16.4945 40.1488 17.572C38.81 19.846 38.2737 19.966 38.0549 19.8247C37.5461 19.4959 37.6736 18.5021 37.6736 17.7971C37.6736 15.5931 38.0074 14.6743 37.0223 14.4368C36.6948 14.3581 36.4548 14.3055 35.6185 14.2968C34.5459 14.2855 33.6371 14.3005 33.1233 14.5518C32.7808 14.7193 32.517 15.0931 32.6783 15.1144C32.877 15.1406 33.3271 15.2356 33.5658 15.5606C33.8746 15.9794 33.8634 16.922 33.8634 16.922C33.8634 16.922 34.0409 19.5159 33.4496 19.8385C33.0433 20.0597 32.487 19.6084 31.2932 17.5445C30.6819 16.4882 30.2193 15.3194 30.2193 15.3194C30.2193 15.3194 30.1306 15.1019 29.9718 14.9856C29.7793 14.8443 29.5093 14.7993 29.5093 14.7993L26.6516 14.8168C26.6516 14.8168 26.2228 14.8293 26.0653 15.0156C25.9253 15.1819 26.054 15.5244 26.054 15.5244C26.054 15.5244 28.2917 20.7585 30.8244 23.3975C33.1483 25.8164 35.786 25.6576 35.786 25.6576H36.9811C36.9811 25.6576 37.3424 25.6176 37.5261 25.4189C37.6961 25.2364 37.6899 24.8938 37.6899 24.8938C37.6899 24.8938 37.6661 23.29 38.4112 23.0537C39.145 22.8212 40.0876 24.6038 41.0864 25.2901C41.8415 25.8089 42.4152 25.6951 42.4152 25.6951L45.0867 25.6576C45.0867 25.6576 46.4843 25.5714 45.8217 24.4726Z" fill="white"/>
</g>
<defs>
<clipPath id="clip0">
<rect width="20" height="20" fill="white" transform="translate(26 10)"/>
</clipPath>
</defs>
</svg>
