<svg width="56" height="40" viewBox="0 0 56 40" fill="none" xmlns="http://www.w3.org/2000/svg">
<rect opacity="0.3" width="40" height="40" rx="5" fill="#9E9E9E"/>
<rect x="9" width="40" height="40" rx="5" fill="white"/>
<rect x="16" width="40" height="40" rx="5" fill="#D50000"/>
<path d="M43.4933 26.0181H42.0665L42.0732 25.1893C42.0732 24.821 42.3756 24.5197 42.7451 24.5197H42.8361C43.2065 24.5197 43.5098 24.821 43.5098 25.1893L43.4933 26.0181ZM38.1414 24.242C37.7794 24.242 37.4833 24.4853 37.4833 24.7831V28.814C37.4833 29.1113 37.7794 29.3539 38.1414 29.3539C38.5048 29.3539 38.8012 29.1113 38.8012 28.814V24.7831C38.8012 24.485 38.5048 24.242 38.1414 24.242ZM46.8332 21.9873V29.6555C46.8332 31.4949 45.2382 33 43.2885 33H28.7115C26.7612 33 25.1665 31.4949 25.1665 29.6555V21.9873C25.1665 20.1479 26.7612 18.6425 28.7115 18.6425H43.2885C45.2382 18.6425 46.8332 20.1479 46.8332 21.9873ZM29.6839 30.4881L29.6827 22.4105L31.4897 22.4111V21.2142L26.6728 21.207V22.3836L28.1764 22.388V30.4881H29.6839ZM35.1005 23.6137H33.594V27.9271C33.594 28.5511 33.6318 28.8631 33.5917 28.9732C33.4692 29.3077 32.9185 29.663 32.7039 29.0093C32.6675 28.8949 32.6996 28.5497 32.699 27.9569L32.6929 23.6137H31.1947L31.1994 27.8887C31.2005 28.5439 31.1846 29.0324 31.2046 29.2548C31.2413 29.6469 31.2283 30.1039 31.592 30.365C32.2697 30.8533 33.5688 30.2922 33.8938 29.5943L33.8909 30.4849L35.1008 30.4864L35.1005 23.6137ZM39.9201 28.5531L39.9169 24.9631C39.9157 23.5949 38.8922 22.7756 37.5029 23.8827L37.509 21.2136L36.0042 21.2159L35.9969 30.4286L37.2345 30.4107L37.3472 29.837C38.9283 31.2875 39.9224 30.2934 39.9201 28.5531ZM44.635 28.0773L43.5055 28.0834C43.5049 28.1282 43.5031 28.1799 43.5026 28.2362V28.8666C43.5026 29.204 43.2238 29.4787 42.8852 29.4787H42.6639C42.3248 29.4787 42.046 29.204 42.046 28.8666V28.7967V28.1033V27.2086H44.6327V26.2351C44.6327 25.5236 44.6145 24.8123 44.5556 24.4056C44.3704 23.1188 42.5643 22.9146 41.6519 23.5733C41.3657 23.779 41.147 24.0543 41.0199 24.424C40.8916 24.7941 40.8277 25.2997 40.8277 25.9419V28.0825C40.8283 31.6411 45.1507 31.1381 44.635 28.0773ZM38.8405 16.4559C38.9182 16.6448 39.0389 16.798 39.2027 16.9135C39.3645 17.0273 39.5714 17.0845 39.8192 17.0845C40.0365 17.0845 40.2289 17.0259 40.3964 16.9048C40.5634 16.7844 40.7041 16.6044 40.8191 16.3643L40.7905 16.9554H42.4698V9.81378H41.1478V15.372C41.1478 15.673 40.9 15.9194 40.5969 15.9194C40.2956 15.9194 40.0469 15.673 40.0469 15.372V9.81378H38.6671V14.6307C38.6671 15.2443 38.6784 15.6534 38.6966 15.8608C38.7154 16.0668 38.7628 16.2644 38.8405 16.4559ZM33.7514 12.4224C33.7514 11.7369 33.8086 11.2016 33.9221 10.8156C34.0365 10.4311 34.2419 10.122 34.5395 9.88889C34.8362 9.6546 35.2161 9.53731 35.678 9.53731C36.0666 9.53731 36.3994 9.61358 36.6773 9.76293C36.9566 9.91316 37.1721 10.1082 37.3215 10.3488C37.4737 10.5903 37.5772 10.8385 37.6323 11.0924C37.6887 11.3498 37.7164 11.7381 37.7164 12.2618V14.068C37.7164 14.7304 37.6898 15.2177 37.6381 15.5271C37.587 15.8374 37.4772 16.1251 37.3071 16.395C37.1395 16.6619 36.9231 16.8615 36.6608 16.9889C36.3956 17.1175 36.0923 17.1804 35.7497 17.1804C35.3669 17.1804 35.0445 17.1276 34.7787 17.0172C34.5121 16.9074 34.3061 16.7419 34.1593 16.5221C34.0111 16.3019 33.9068 16.0338 33.8439 15.7213C33.7806 15.409 33.7505 14.9392 33.7505 14.3132L33.7514 12.4224ZM35.0667 15.2593C35.0667 15.6638 35.3677 15.994 35.7343 15.994C36.1012 15.994 36.4011 15.6638 36.4011 15.2593V11.4576C36.4011 11.0537 36.1012 10.7235 35.7343 10.7235C35.3677 10.7235 35.0667 11.0537 35.0667 11.4576V15.2593ZM30.4191 17.179H32.0033L32.0051 11.7017L33.8771 7.00953H32.1443L31.1491 10.4947L30.1397 7H28.4249L30.4165 11.7043L30.4191 17.179Z" fill="white"/>
</svg>
