<svg width="46" height="46" viewBox="0 0 46 46" fill="none" xmlns="http://www.w3.org/2000/svg">
<path d="M38.0958 11.4489C37.932 10.8353 37.5995 10.1814 37.3535 9.60888C34.4101 2.5351 27.9788 0 22.7858 0C15.834 0 8.17749 4.66145 7.15527 14.2698V16.2328C7.15527 16.3148 7.18351 17.0507 7.22361 17.4188C7.79664 21.9979 11.4099 26.8645 14.1084 31.4436C17.0116 36.3496 20.0242 41.1758 23.0088 45.9999C24.8491 42.8518 26.6829 39.6622 28.4813 36.5956C28.9715 35.6956 29.5404 34.7962 30.0311 33.9372C30.3582 33.3652 30.9829 32.7933 31.2684 32.2611C34.1715 26.9459 38.8444 21.5896 38.8444 16.3147V14.1477C38.8445 13.5758 38.1357 11.5722 38.0958 11.4489ZM22.913 21.3034C20.8696 21.3034 18.6329 20.2816 17.5288 17.4598C17.3644 17.0106 17.3776 16.1104 17.3776 16.0279V14.7604C17.3776 11.1631 20.4321 9.52718 23.0893 9.52718C26.3606 9.52718 28.8907 12.1444 28.8907 15.4158C28.8907 18.687 26.1844 21.3034 22.913 21.3034Z" fill="url(#paint0_linear)"/>
<defs>
<linearGradient id="paint0_linear" x1="22.9998" y1="0" x2="22.9998" y2="45.9999" gradientUnits="userSpaceOnUse">
<stop stop-color="#FFDB13"/>
<stop offset="1" stop-color="#FAAC2B"/>
</linearGradient>
</defs>
</svg>
