<svg width="74" height="72" viewBox="0 0 74 72" fill="none" xmlns="http://www.w3.org/2000/svg">
<g filter="url(#filter0_d)">
<path d="M42.4457 13.4726C47.3205 11.1762 52.8532 15.018 52.4045 20.3879L49.5423 54.6459C49.0937 60.0158 43.0002 62.8863 38.5741 59.8128L10.3369 40.2051C5.91078 37.1316 6.47158 30.4192 11.3464 28.1228L42.4457 13.4726Z" fill="#3E78F9"/>
<path d="M44.1504 17.0912C46.2396 16.107 48.6107 17.7535 48.4184 20.0549L52.4045 20.3879L48.4184 20.0549L45.5562 54.3128C45.3639 56.6142 42.7524 57.8444 40.8555 56.5272L12.6184 36.9195C10.7215 35.6023 10.9618 32.7256 13.051 31.7414L44.1504 17.0912Z" stroke="white" stroke-width="8"/>
</g>
<defs>
<filter id="filter0_d" x="0.578613" y="0.253052" width="72.7197" height="71.5583" filterUnits="userSpaceOnUse" color-interpolation-filters="sRGB">
<feFlood flood-opacity="0" result="BackgroundImageFix"/>
<feColorMatrix in="SourceAlpha" type="matrix" values="0 0 0 0 0 0 0 0 0 0 0 0 0 0 0 0 0 0 127 0"/>
<feOffset dy="4"/>
<feGaussianBlur stdDeviation="2"/>
<feColorMatrix type="matrix" values="0 0 0 0 0 0 0 0 0 0 0 0 0 0 0 0 0 0 0.06 0"/>
<feBlend mode="normal" in2="BackgroundImageFix" result="effect1_dropShadow"/>
<feBlend mode="normal" in="SourceGraphic" in2="effect1_dropShadow" result="shape"/>
</filter>
</defs>
</svg>
