<svg width="576" height="577" viewBox="0 0 576 577" fill="none" xmlns="http://www.w3.org/2000/svg">
<path d="M575.965 283.954C575.981 284.962 575.991 285.972 575.996 286.983L574.996 286.988C574.999 287.492 575 287.996 575 288.5C575 289.004 574.999 289.508 574.996 290.012L575.996 290.017C575.991 291.028 575.981 292.037 575.965 293.046L574.965 293.03C574.95 294.035 574.929 295.039 574.903 296.041L575.903 296.067C575.877 297.073 575.846 298.078 575.81 299.081L574.811 299.045C574.775 300.045 574.733 301.043 574.687 302.04L575.686 302.087C575.64 303.094 575.588 304.099 575.531 305.103L574.533 305.047C574.476 306.052 574.414 307.056 574.346 308.058L575.344 308.125C575.277 309.131 575.204 310.135 575.126 311.138L574.129 311.061C574.052 312.06 573.969 313.058 573.882 314.055L574.878 314.143C574.79 315.143 574.697 316.141 574.599 317.138L573.604 317.041C573.505 318.041 573.402 319.04 573.293 320.037L574.287 320.146C574.178 321.149 574.063 322.151 573.944 323.152L572.951 323.033C572.832 324.03 572.708 325.026 572.578 326.02L573.57 326.148C573.44 327.146 573.305 328.142 573.165 329.136L572.175 328.996C572.036 329.987 571.891 330.976 571.742 331.963L572.731 332.113C572.58 333.111 572.423 334.108 572.262 335.103L571.275 334.943C571.114 335.935 570.948 336.926 570.777 337.915L571.762 338.085C571.591 339.078 571.414 340.068 571.232 341.057L570.249 340.877C570.068 341.862 569.882 342.846 569.691 343.828L570.672 344.019C570.48 345.005 570.283 345.989 570.081 346.972L569.102 346.77C568.899 347.756 568.692 348.74 568.479 349.722L569.457 349.933C569.243 350.919 569.025 351.902 568.802 352.884L567.826 352.662C567.604 353.64 567.376 354.616 567.144 355.591L568.117 355.823C567.883 356.801 567.645 357.776 567.402 358.75L566.432 358.508C566.189 359.481 565.941 360.452 565.688 361.42L566.655 361.673C566.401 362.649 566.141 363.623 565.876 364.596L564.911 364.333C564.648 365.302 564.379 366.269 564.105 367.233L565.067 367.506C564.793 368.474 564.513 369.44 564.229 370.404L563.27 370.121C562.986 371.082 562.698 372.04 562.405 372.997L563.361 373.29C563.066 374.253 562.766 375.214 562.461 376.173L561.508 375.87C561.203 376.827 560.894 377.783 560.58 378.736L561.529 379.049C561.214 380.005 560.894 380.96 560.569 381.912L559.622 381.588C559.298 382.537 558.97 383.484 558.636 384.428L559.579 384.761C559.244 385.708 558.905 386.653 558.561 387.596L557.621 387.253C557.277 388.197 556.927 389.139 556.573 390.079L557.509 390.431C557.153 391.374 556.793 392.315 556.428 393.253L555.496 392.89C555.132 393.825 554.763 394.758 554.39 395.688L555.318 396.06C554.943 396.993 554.564 397.924 554.18 398.853L553.256 398.471C552.873 399.397 552.485 400.321 552.093 401.242L553.013 401.634C552.617 402.562 552.218 403.487 551.813 404.409L550.897 404.007C550.494 404.927 550.087 405.843 549.674 406.757L550.586 407.169C550.172 408.086 549.754 409.001 549.331 409.913L548.424 409.492C548.002 410.401 547.576 411.308 547.145 412.211L548.048 412.642C547.615 413.551 547.177 414.457 546.734 415.361L545.836 414.921C545.395 415.823 544.949 416.722 544.498 417.618L545.392 418.068C544.939 418.967 544.483 419.864 544.022 420.758L543.133 420.3C542.673 421.191 542.209 422.079 541.74 422.964L542.624 423.432C542.154 424.321 541.679 425.207 541.2 426.09L540.321 425.613C539.842 426.496 539.359 427.375 538.871 428.252L539.745 428.739C539.255 429.619 538.761 430.496 538.263 431.37L537.394 430.875C536.897 431.746 536.396 432.615 535.89 433.48L536.754 433.985C536.246 434.853 535.735 435.719 535.219 436.582L534.36 436.068C533.846 436.929 533.326 437.786 532.803 438.641L533.656 439.164C533.13 440.022 532.599 440.878 532.064 441.731L531.217 441.2C530.684 442.05 530.147 442.897 529.605 443.741L530.447 444.281C529.904 445.128 529.356 445.972 528.804 446.813L527.968 446.264C527.418 447.102 526.864 447.937 526.305 448.768L527.135 449.326C526.574 450.162 526.008 450.995 525.439 451.824L524.614 451.258C524.046 452.085 523.474 452.909 522.898 453.73L523.716 454.305C523.137 455.128 522.555 455.949 521.968 456.766L521.156 456.183C520.571 456.997 519.982 457.809 519.389 458.617L520.195 459.208C519.6 460.02 519.001 460.827 518.397 461.632L517.597 461.032C516.995 461.835 516.389 462.634 515.779 463.43L516.572 464.039C515.96 464.838 515.344 465.633 514.723 466.425L513.936 465.809C513.317 466.598 512.695 467.385 512.069 468.168L512.85 468.792C512.221 469.578 511.589 470.36 510.952 471.139L510.178 470.506C509.543 471.283 508.904 472.056 508.262 472.826L509.029 473.466C508.384 474.239 507.735 475.008 507.082 475.774L506.321 475.125C505.67 475.889 505.016 476.648 504.357 477.405L505.111 478.061C504.451 478.82 503.786 479.575 503.117 480.327L502.37 479.663C501.704 480.412 501.034 481.158 500.36 481.9L501.1 482.572C500.423 483.317 499.743 484.059 499.059 484.797L498.325 484.117C497.643 484.852 496.958 485.584 496.268 486.312L496.994 487C496.302 487.731 495.607 488.458 494.907 489.181L494.188 488.486C493.491 489.207 492.791 489.924 492.086 490.638L492.798 491.341C492.091 492.057 491.38 492.769 490.666 493.478L489.962 492.768C489.25 493.474 488.534 494.177 487.815 494.876L488.512 495.593C487.791 496.294 487.065 496.992 486.336 497.686L485.647 496.961C484.92 497.653 484.19 498.34 483.457 499.024L484.139 499.755C483.402 500.442 482.663 501.124 481.919 501.802L481.245 501.064C480.505 501.74 479.761 502.412 479.013 503.08L479.68 503.826C478.929 504.496 478.176 505.163 477.419 505.826L476.76 505.073C476.005 505.734 475.247 506.39 474.486 507.043L475.137 507.802C474.373 508.457 473.605 509.108 472.834 509.755L472.191 508.989C471.423 509.634 470.651 510.275 469.876 510.911L470.511 511.684C469.734 512.322 468.953 512.957 468.169 513.588L467.543 512.808C466.761 513.437 465.977 514.061 465.189 514.681L465.807 515.467C465.017 516.089 464.223 516.708 463.425 517.322L462.815 516.53C462.02 517.142 461.223 517.75 460.421 518.354L461.023 519.153C460.22 519.758 459.414 520.36 458.604 520.957L458.01 520.152C457.204 520.747 456.394 521.338 455.581 521.925L456.166 522.736C455.35 523.325 454.531 523.909 453.709 524.49L453.132 523.673C452.313 524.251 451.491 524.825 450.665 525.395L451.233 526.218C450.405 526.79 449.573 527.358 448.739 527.921L448.179 527.092C447.349 527.653 446.515 528.209 445.679 528.761L446.229 529.596C445.39 530.15 444.547 530.7 443.702 531.245L443.16 530.405C442.317 530.948 441.471 531.487 440.623 532.022L441.156 532.868C440.304 533.405 439.45 533.937 438.592 534.465L438.068 533.614C437.214 534.139 436.358 534.661 435.498 535.178L436.013 536.035C435.152 536.553 434.287 537.066 433.42 537.576L432.914 536.713C432.049 537.221 431.182 537.724 430.312 538.223L430.809 539.09C429.936 539.591 429.06 540.087 428.181 540.578L427.693 539.705C426.817 540.195 425.938 540.68 425.057 541.161L425.536 542.039C424.653 542.52 423.768 542.997 422.881 543.469L422.411 542.587C421.526 543.057 420.639 543.523 419.749 543.985L420.209 544.872C419.316 545.336 418.421 545.794 417.522 546.248L417.071 545.356C416.176 545.808 415.278 546.256 414.377 546.699L414.818 547.596C413.915 548.041 413.01 548.48 412.101 548.916L411.669 548.014C410.766 548.446 409.861 548.874 408.953 549.298L409.375 550.204C408.464 550.629 407.55 551.049 406.634 551.465L406.221 550.554C405.307 550.968 404.392 551.377 403.473 551.782L403.877 552.697C402.955 553.103 402.031 553.505 401.104 553.902L400.711 552.982C399.79 553.377 398.866 553.766 397.941 554.151L398.324 555.075C397.397 555.46 396.467 555.841 395.534 556.218L395.16 555.29C394.23 555.665 393.299 556.035 392.365 556.401L392.729 557.332C391.792 557.699 390.852 558.061 389.91 558.418L389.555 557.483C388.616 557.839 387.675 558.19 386.732 558.536L387.076 559.475C386.134 559.821 385.189 560.162 384.242 560.498L383.907 559.556C382.964 559.891 382.018 560.221 381.07 560.546L381.395 561.492C380.443 561.819 379.489 562.14 378.534 562.457L378.219 561.508C377.266 561.824 376.312 562.135 375.355 562.44L375.659 563.393C374.701 563.7 373.74 564.001 372.777 564.298L372.482 563.342C371.526 563.637 370.568 563.926 369.608 564.211L369.893 565.17C368.929 565.456 367.964 565.736 366.996 566.012L366.722 565.05C365.758 565.325 364.791 565.595 363.823 565.86L364.087 566.825C363.115 567.091 362.141 567.352 361.165 567.608L360.912 566.641C359.943 566.895 358.972 567.144 357.999 567.388L358.243 568.358C357.269 568.603 356.294 568.842 355.316 569.076L355.083 568.104C354.109 568.338 353.133 568.566 352.155 568.79L352.378 569.765C351.397 569.989 350.414 570.209 349.429 570.423L349.216 569.446C348.235 569.66 347.251 569.868 346.266 570.072L346.468 571.051C345.486 571.254 344.501 571.452 343.515 571.645L343.323 570.663C342.341 570.855 341.358 571.042 340.373 571.224L340.554 572.208C339.566 572.39 338.575 572.568 337.583 572.74L337.412 571.755C336.423 571.927 335.432 572.094 334.44 572.256L334.601 573.243C333.606 573.405 332.61 573.562 331.611 573.714L331.461 572.725C330.474 572.875 329.485 573.021 328.494 573.161L328.634 574.151C327.64 574.291 326.645 574.427 325.648 574.557L325.518 573.566C324.524 573.696 323.529 573.821 322.532 573.94L322.651 574.933C321.651 575.053 320.649 575.168 319.645 575.278L319.537 574.284C318.539 574.393 317.54 574.497 316.54 574.596L316.638 575.592C315.641 575.69 314.642 575.784 313.642 575.872L313.554 574.876C312.558 574.964 311.56 575.047 310.56 575.125L310.638 576.122C309.635 576.2 308.631 576.273 307.625 576.341L307.558 575.343C306.555 575.411 305.552 575.473 304.547 575.53L304.603 576.529C303.599 576.586 302.594 576.638 301.587 576.685L301.54 575.686C300.543 575.732 299.545 575.773 298.545 575.81L298.581 576.809C297.578 576.845 296.573 576.876 295.567 576.902L295.542 575.903C294.539 575.929 293.536 575.949 292.531 575.965L292.546 576.965C291.538 576.98 290.528 576.991 289.517 576.996L289.512 575.996C289.008 575.999 288.504 576 288 576C287.496 576 286.992 575.999 286.488 575.996L286.483 576.996C285.472 576.991 284.463 576.98 283.454 576.965L283.47 575.965C282.465 575.949 281.461 575.929 280.459 575.903L280.433 576.902C279.427 576.876 278.423 576.845 277.419 576.809L277.455 575.81C276.456 575.773 275.457 575.732 274.46 575.686L274.414 576.685C273.407 576.638 272.401 576.586 271.397 576.529L271.454 575.53C270.449 575.473 269.445 575.411 268.443 575.343L268.375 576.341C267.37 576.273 266.365 576.2 265.362 576.122L265.44 575.125C264.44 575.047 263.443 574.964 262.446 574.876L262.358 575.872C261.358 575.784 260.359 575.69 259.362 575.592L259.461 574.596C258.46 574.498 257.461 574.393 256.464 574.284L256.355 575.278C255.351 575.168 254.35 575.053 253.349 574.933L253.468 573.94C252.471 573.821 251.476 573.696 250.482 573.566L250.353 574.557C249.356 574.427 248.36 574.291 247.366 574.151L247.506 573.161C246.516 573.021 245.527 572.875 244.54 572.725L244.389 573.714C243.391 573.562 242.394 573.405 241.399 573.243L241.56 572.256C240.568 572.094 239.577 571.927 238.589 571.755L238.417 572.741C237.425 572.568 236.435 572.391 235.446 572.208L235.628 571.225C234.642 571.043 233.659 570.856 232.677 570.664L232.485 571.645C231.499 571.452 230.515 571.254 229.532 571.051L229.734 570.072C228.749 569.868 227.766 569.66 226.784 569.446L226.571 570.423C225.586 570.209 224.603 569.989 223.622 569.765L223.845 568.79C222.867 568.566 221.891 568.338 220.917 568.104L220.684 569.076C219.706 568.842 218.731 568.603 217.757 568.358L218.001 567.388C217.028 567.144 216.057 566.895 215.089 566.641L214.835 567.608C213.859 567.352 212.885 567.091 211.913 566.825L212.177 565.86C211.209 565.595 210.243 565.325 209.278 565.051L209.004 566.012C208.037 565.736 207.071 565.456 206.107 565.17L206.392 564.211C205.432 563.926 204.474 563.637 203.518 563.342L203.223 564.298C202.26 564.001 201.3 563.7 200.341 563.393L200.645 562.441C199.688 562.135 198.734 561.824 197.781 561.508L197.467 562.457C196.511 562.14 195.557 561.819 194.606 561.492L194.93 560.546C193.982 560.221 193.036 559.891 192.093 559.556L191.758 560.498C190.811 560.162 189.866 559.821 188.924 559.475L189.269 558.536C188.325 558.19 187.384 557.839 186.445 557.483L186.091 558.418C185.148 558.061 184.209 557.699 183.271 557.332L183.636 556.401C182.701 556.035 181.77 555.665 180.84 555.29L180.466 556.218C179.534 555.841 178.603 555.46 177.676 555.075L178.06 554.151C177.134 553.766 176.21 553.377 175.289 552.982L174.896 553.902C173.969 553.505 173.045 553.103 172.124 552.697L172.527 551.782C171.609 551.377 170.693 550.968 169.779 550.554L169.366 551.465C168.45 551.049 167.536 550.629 166.625 550.204L167.047 549.298C166.139 548.874 165.234 548.446 164.331 548.014L163.899 548.916C162.99 548.48 162.085 548.041 161.182 547.596L161.623 546.699C160.722 546.256 159.824 545.808 158.929 545.356L158.478 546.248C157.579 545.794 156.684 545.336 155.791 544.872L156.251 543.985C155.361 543.523 154.474 543.057 153.589 542.587L153.119 543.469C152.232 542.997 151.347 542.52 150.464 542.039L150.943 541.161C150.062 540.68 149.183 540.195 148.307 539.705L147.819 540.578C146.94 540.087 146.064 539.591 145.191 539.09L145.688 538.223C144.818 537.724 143.951 537.221 143.086 536.713L142.58 537.576C141.713 537.066 140.848 536.553 139.987 536.034L140.502 535.177C139.642 534.661 138.786 534.139 137.932 533.614L137.408 534.465C136.55 533.937 135.696 533.405 134.844 532.868L135.377 532.022C134.528 531.487 133.683 530.948 132.84 530.405L132.298 531.245C131.452 530.7 130.61 530.15 129.77 529.596L130.321 528.761C129.485 528.209 128.651 527.653 127.821 527.092L127.261 527.921C126.427 527.358 125.595 526.79 124.767 526.218L125.335 525.395C124.509 524.825 123.687 524.251 122.867 523.673L122.291 524.49C121.468 523.909 120.649 523.325 119.834 522.736L120.419 521.925C119.606 521.338 118.796 520.747 117.989 520.152L117.396 520.957C116.586 520.36 115.779 519.758 114.976 519.153L115.578 518.354C114.777 517.75 113.979 517.142 113.185 516.53L112.574 517.322C111.777 516.708 110.983 516.089 110.192 515.467L110.811 514.681C110.023 514.061 109.238 513.436 108.457 512.808L107.83 513.587C107.046 512.957 106.266 512.322 105.488 511.684L106.123 510.911C105.348 510.274 104.577 509.634 103.809 508.989L103.166 509.755C102.395 509.108 101.627 508.457 100.863 507.802L101.514 507.043C100.752 506.39 99.9943 505.734 99.2397 505.073L98.5811 505.826C97.824 505.163 97.0703 504.496 96.3202 503.826L96.9866 503.08C96.239 502.412 95.495 501.74 94.7545 501.064L94.0803 501.802C93.337 501.124 92.5973 500.441 91.8611 499.755L92.5429 499.024C91.8093 498.34 91.0793 497.652 90.3529 496.961L89.6634 497.685C88.9345 496.992 88.2092 496.294 87.4875 495.593L88.1845 494.876C87.4653 494.177 86.7498 493.474 86.0379 492.768L85.3335 493.478C84.6193 492.769 83.9087 492.056 83.2018 491.34L83.9135 490.638C83.209 489.924 82.5083 489.207 81.8113 488.486L81.0924 489.181C80.393 488.457 79.6973 487.73 79.0055 487L79.7316 486.312C79.0421 485.584 78.3564 484.852 77.6745 484.117L76.9412 484.797C76.2569 484.059 75.5765 483.317 74.8998 482.572L75.6401 481.9C74.9662 481.157 74.296 480.412 73.6297 479.662L72.8825 480.327C72.2139 479.575 71.5492 478.82 70.8883 478.061L71.6425 477.404C70.9839 476.648 70.3293 475.888 69.6786 475.125L68.9176 475.774C68.2646 475.008 67.6156 474.239 66.9705 473.466L67.7382 472.825C67.0955 472.056 66.4568 471.282 65.8221 470.506L65.0478 471.139C64.4113 470.36 63.7788 469.578 63.1502 468.792L63.9311 468.167C63.3047 467.384 62.6823 466.598 62.064 465.809L61.2767 466.425C60.6562 465.633 60.0398 464.837 59.4275 464.038L60.2212 463.43C59.6109 462.634 59.0048 461.834 58.4027 461.032L57.6027 461.632C56.9993 460.827 56.3999 460.019 55.8046 459.208L56.6108 458.617C56.0178 457.809 55.4289 456.997 54.8441 456.183L54.0318 456.766C53.445 455.949 52.8624 455.128 52.284 454.305L53.1024 453.73C52.5259 452.909 51.9537 452.085 51.3856 451.258L50.5613 451.824C49.9915 450.994 49.4259 450.162 48.8646 449.326L49.6948 448.768C49.1362 447.936 48.5819 447.102 48.0319 446.264L47.1959 446.812C46.6439 445.972 46.0962 445.128 45.5528 444.281L46.3945 443.741C45.8529 442.897 45.3157 442.05 44.7828 441.2L43.9355 441.731C43.4008 440.878 42.8703 440.022 42.3443 439.163L43.197 438.641C42.6735 437.786 42.1543 436.929 41.6395 436.068L40.7813 436.581C40.2652 435.719 39.7535 434.853 39.2462 433.984L40.1097 433.48C39.6041 432.614 39.1029 431.746 38.6062 430.875L37.7374 431.37C37.2389 430.496 36.7449 429.618 36.2553 428.738L37.1292 428.252C36.6413 427.375 36.1579 426.495 35.6789 425.613L34.8 426.09C34.3207 425.207 33.8459 424.321 33.3756 423.432L34.2595 422.964C33.7909 422.079 33.3268 421.19 32.8671 420.299L31.9784 420.758C31.5172 419.864 31.0605 418.967 30.6084 418.067L31.5019 417.618C31.0513 416.722 30.6053 415.823 30.1639 414.921L29.2657 415.361C28.8233 414.457 28.3854 413.551 27.9522 412.642L28.8549 412.211C28.4242 411.307 27.998 410.401 27.5764 409.492L26.6692 409.913C26.2462 409.001 25.8278 408.086 25.414 407.169L26.3256 406.757C25.9133 405.843 25.5056 404.927 25.1025 404.007L24.1867 404.409C23.7823 403.487 23.3825 402.562 22.9875 401.634L23.9075 401.242C23.5149 400.321 23.1271 399.397 22.7439 398.471L21.8198 398.853C21.4358 397.924 21.0565 396.993 20.6819 396.06L21.61 395.688C21.2367 394.758 20.8681 393.825 20.5043 392.89L19.5724 393.253C19.2073 392.315 18.847 391.374 18.4914 390.431L19.4271 390.079C19.0729 389.139 18.7234 388.197 18.3787 387.253L17.4394 387.596C17.0951 386.653 16.7556 385.708 16.421 384.761L17.3639 384.428C17.0304 383.484 16.7017 382.537 16.3777 381.588L15.4314 381.912C15.1063 380.96 14.7861 380.005 14.4708 379.049L15.4205 378.736C15.1063 377.783 14.7968 376.827 14.4923 375.87L13.5393 376.173C13.2344 375.214 12.9342 374.253 12.639 373.29L13.5951 372.997C13.302 372.04 13.0137 371.082 12.7303 370.121L11.7712 370.404C11.4868 369.44 11.2074 368.474 10.9328 367.506L11.8948 367.233C11.6212 366.269 11.3525 365.302 11.0887 364.333L10.1239 364.596C9.85917 363.624 9.59942 362.649 9.34465 361.673L10.3122 361.421C10.0594 360.452 9.81149 359.481 9.56853 358.508L8.59833 358.75C8.3551 357.777 8.11681 356.801 7.88349 355.823L8.85618 355.591C8.62367 354.617 8.39612 353.64 8.17354 352.662L7.19847 352.884C6.97511 351.902 6.75676 350.919 6.54342 349.934L7.52078 349.722C7.3082 348.74 7.10062 347.756 6.89807 346.771L5.91854 346.972C5.71664 345.989 5.51972 345.005 5.32782 344.019L6.3094 343.828C6.11833 342.846 5.93224 341.862 5.75117 340.877L4.76764 341.057C4.58594 340.069 4.40927 339.078 4.23766 338.085L5.22304 337.915C5.05203 336.926 4.88606 335.935 4.72516 334.943L3.73805 335.103C3.57675 334.108 3.42052 333.111 3.2694 332.113L4.25813 331.964C4.10867 330.976 3.96422 329.987 3.82481 328.996L2.83457 329.136C2.69468 328.142 2.55984 327.146 2.43009 326.149L3.42173 326.02C3.29243 325.026 3.16819 324.03 3.04905 323.033L2.05611 323.152C1.93656 322.152 1.82211 321.149 1.71281 320.146L2.70693 320.038C2.5983 319.04 2.49476 318.041 2.39634 317.041L1.40114 317.139C1.30305 316.142 1.21003 315.143 1.1221 314.143L2.11826 314.055C2.03063 313.059 1.94808 312.061 1.87063 311.061L0.873618 311.138C0.795903 310.135 0.723308 309.131 0.655859 308.125L1.65362 308.058C1.5864 307.056 1.52431 306.052 1.46737 305.047L0.468975 305.104C0.412098 304.099 0.360348 303.094 0.31375 302.087L1.31268 302.041C1.26653 301.044 1.22545 300.045 1.18946 299.045L0.190109 299.081C0.154001 298.078 0.123008 297.073 0.097153 296.068L1.09682 296.042C1.07106 295.039 1.05041 294.036 1.03491 293.031L0.035032 293.046C0.0194812 292.038 0.00909504 291.028 0.00389878 290.017L1.00389 290.012C1.0013 289.508 1 289.004 1 288.5C1 287.996 1.0013 287.492 1.00388 286.988L0.00389689 286.983C0.00909192 285.972 0.0194769 284.963 0.0350266 283.954L1.03491 283.97C1.0504 282.965 1.07105 281.961 1.09681 280.959L0.0971436 280.933C0.122997 279.927 0.15399 278.922 0.190098 277.919L1.18945 277.955C1.22543 276.955 1.26651 275.957 1.31267 274.96L0.313734 274.913C0.360331 273.906 0.412081 272.901 0.468956 271.897L1.46736 271.953C1.52429 270.948 1.58638 269.944 1.6536 268.942L0.655838 268.875C0.723287 267.869 0.795882 266.865 0.873597 265.862L1.87061 265.939C1.94806 264.94 2.03061 263.942 2.11823 262.945L1.12207 262.857C1.21 261.857 1.30303 260.859 1.40112 259.862L2.39631 259.959C2.49473 258.959 2.59827 257.96 2.7069 256.963L1.71278 256.854C1.82208 255.851 1.93653 254.849 2.05609 253.848L3.04902 253.967C3.16816 252.97 3.2924 251.974 3.4217 250.98L2.43006 250.851C2.55981 249.854 2.69465 248.858 2.83454 247.864L3.82478 248.004C3.96419 247.013 4.10864 246.024 4.2581 245.037L3.26937 244.887C3.42049 243.889 3.57672 242.892 3.73802 241.897L4.72513 242.057C4.88603 241.065 5.052 240.074 5.22301 239.085L4.23763 238.915C4.40924 237.922 4.5859 236.932 4.76761 235.943L5.75114 236.123C5.93221 235.138 6.1183 234.154 6.30938 233.172L5.32779 232.981C5.51969 231.995 5.71661 231.011 5.91851 230.028L6.89805 230.23C7.10059 229.244 7.30817 228.26 7.52075 227.278L6.5434 227.067C6.75673 226.081 6.97509 225.098 7.19844 224.116L8.17352 224.338C8.39609 223.36 8.62364 222.384 8.85615 221.409L7.88346 221.177C8.11678 220.199 8.35507 219.224 8.5983 218.25L9.5685 218.492C9.81147 217.519 10.0594 216.548 10.3122 215.58L9.34461 215.327C9.59939 214.351 9.85914 213.377 10.1238 212.404L11.0887 212.667C11.3525 211.698 11.6212 210.731 11.8948 209.767L10.9328 209.494C11.2073 208.526 11.4868 207.56 11.7712 206.596L12.7303 206.879C13.0137 205.918 13.302 204.96 13.5951 204.003L12.639 203.71C12.9342 202.747 13.2343 201.786 13.5393 200.827L14.4923 201.13C14.7968 200.173 15.1062 199.217 15.4205 198.264L14.4708 197.951C14.7861 196.995 15.1063 196.04 15.4314 195.088L16.3777 195.412C16.7016 194.463 17.0303 193.517 17.3639 192.572L16.4209 192.239C16.7556 191.292 17.0951 190.347 17.4393 189.404L18.3787 189.747C18.7234 188.803 19.0728 187.861 19.4271 186.921L18.4914 186.569C18.847 185.626 19.2073 184.685 19.5724 183.747L20.5043 184.11C20.8681 183.175 21.2367 182.242 21.61 181.312L20.6819 180.94C21.0565 180.007 21.4358 179.076 21.8198 178.147L22.7439 178.529C23.1271 177.603 23.5149 176.679 23.9075 175.758L22.9874 175.366C23.3825 174.438 23.7823 173.513 24.1867 172.591L25.1025 172.993C25.5056 172.073 25.9133 171.157 26.3256 170.243L25.414 169.831C25.8278 168.914 26.2462 167.999 26.6692 167.087L27.5764 167.508C27.998 166.599 28.4242 165.693 28.8549 164.789L27.9522 164.358C28.3854 163.449 28.8233 162.543 29.2657 161.639L30.1639 162.079C30.6053 161.177 31.0513 160.278 31.5019 159.382L30.6084 158.932C31.0605 158.033 31.5172 157.136 31.9784 156.242L32.8672 156.7C33.3268 155.809 33.7909 154.921 34.2595 154.036L33.3757 153.568C33.846 152.679 34.3208 151.793 34.8 150.91L35.6789 151.387C36.1579 150.504 36.6413 149.625 37.1292 148.748L36.2554 148.261C36.7449 147.381 37.239 146.504 37.7375 145.63L38.6062 146.125C39.103 145.254 39.6042 144.385 40.1097 143.52L39.2462 143.016C39.7536 142.147 40.2653 141.281 40.7814 140.418L41.6396 140.932C42.1544 140.071 42.6736 139.214 43.1971 138.359L42.3443 137.836C42.8704 136.978 43.4009 136.122 43.9356 135.269L44.7829 135.8C45.3158 134.95 45.853 134.103 46.3946 133.259L45.5529 132.719C46.0963 131.872 46.644 131.028 47.196 130.187L48.032 130.736C48.582 129.898 49.1364 129.063 49.6949 128.232L48.8647 127.674C49.4261 126.838 49.9917 126.005 50.5615 125.176L51.3858 125.742C51.9538 124.915 52.5261 124.091 53.1025 123.27L52.2841 122.695C52.8626 121.872 53.4452 121.051 54.032 120.234L54.8443 120.817C55.4291 120.003 56.018 119.191 56.611 118.383L55.8048 117.792C56.4 116.98 56.9994 116.173 57.6029 115.368L58.4029 115.968C59.005 115.165 59.6111 114.366 60.2214 113.57L59.4277 112.961C60.04 112.162 60.6564 111.367 61.2769 110.575L62.0642 111.191C62.6825 110.402 63.3049 109.615 63.9313 108.833L63.1504 108.208C63.779 107.422 64.4115 106.64 65.048 105.861L65.8223 106.494C66.4571 105.717 67.0957 104.944 67.7384 104.174L66.9707 103.534C67.6158 102.761 68.2649 101.992 68.9179 101.226L69.6788 101.875C70.3295 101.111 70.9842 100.352 71.6427 99.5955L70.8886 98.9388C71.5494 98.1799 72.2141 97.4246 72.8827 96.6727L73.63 97.3373C74.2962 96.588 74.9664 95.8423 75.6404 95.1001L74.9 94.4278C75.5767 93.6827 76.2571 92.9411 76.9414 92.2032L77.6747 92.8831C78.3566 92.1477 79.0424 91.4159 79.7318 90.6877L79.0057 90.0001C79.6976 89.2694 80.3932 88.5423 81.0926 87.8188L81.8116 88.5139C82.5086 87.7929 83.2093 87.0756 83.9137 86.3619L83.202 85.6594C83.9089 84.9433 84.6195 84.2309 85.3338 83.5221L86.0381 84.232C86.75 83.5257 87.4655 82.8231 88.1847 82.1242L87.4878 81.407C88.2094 80.7057 88.9348 80.0082 89.6637 79.3144L90.3531 80.0388C91.0795 79.3474 91.8096 78.6599 92.5432 77.9761L91.8614 77.2445C92.5975 76.5584 93.3372 75.8761 94.0805 75.1976L94.7547 75.9361C95.4952 75.2602 96.2393 74.5881 96.9869 73.9198L96.3204 73.1742C97.0705 72.5037 97.8242 71.837 98.5814 71.1743L99.24 71.9267C99.9945 71.2662 100.753 70.6096 101.514 69.957L100.863 69.1977C101.627 68.5428 102.395 67.8918 103.166 67.2448L103.809 68.0108C104.577 67.3662 105.349 66.7255 106.124 66.0888L105.489 65.3161C106.266 64.6776 107.047 64.043 107.831 63.4125L108.457 64.1917C109.239 63.5634 110.023 62.939 110.811 62.3187L110.193 61.533C110.983 60.9105 111.777 60.2921 112.575 59.6778L113.185 60.47C113.98 59.8578 114.777 59.2497 115.578 58.6457L114.976 57.8472C115.78 57.2417 116.586 56.6402 117.396 56.0429L117.989 56.8476C118.796 56.2526 119.606 55.6617 120.419 55.0749L119.834 54.264C120.65 53.6752 121.469 53.0906 122.291 52.5102L122.867 53.3272C123.687 52.7488 124.509 52.1745 125.335 51.6045L124.767 50.7816C125.595 50.2097 126.427 49.6421 127.261 49.0787L127.821 49.9076C128.651 49.347 129.485 48.7907 130.321 48.2386L129.771 47.404C130.61 46.85 131.453 46.3003 132.298 45.7549L132.84 46.5953C133.683 46.0518 134.529 45.5126 135.377 44.9777L134.844 44.1317C135.696 43.595 136.55 43.0626 137.408 42.5345L137.932 43.3861C138.786 42.8605 139.642 42.3393 140.502 41.8224L139.987 40.9654C140.848 40.4473 141.713 39.9336 142.58 39.4244L143.086 40.2867C143.951 39.7792 144.818 39.2761 145.688 38.7774L145.191 37.9098C146.064 37.4094 146.94 36.9134 147.819 36.4219L148.307 37.2947C149.183 36.8049 150.062 36.3196 150.943 35.8387L150.464 34.9609C151.347 34.4796 152.232 34.0028 153.119 33.5305L153.589 34.4133C154.474 33.9428 155.361 33.4768 156.251 33.0153L155.791 32.1276C156.684 31.6645 157.579 31.2059 158.478 30.7519L158.929 31.6445C159.824 31.1921 160.722 30.7442 161.623 30.301L161.182 29.4038C162.085 28.9594 162.99 28.5196 163.899 28.0845L164.331 28.9863C165.234 28.5537 166.139 28.1258 167.047 27.7024L166.625 26.7961C167.536 26.3712 168.45 25.951 169.366 25.5355L169.779 26.4462C170.693 26.0321 171.608 25.6227 172.527 25.2179L172.123 24.3029C173.045 23.8967 173.969 23.4952 174.896 23.0985L175.289 24.0177C176.21 23.6234 177.134 23.2337 178.059 22.8488L177.676 21.9254C178.603 21.5397 179.533 21.1587 180.466 20.7825L180.84 21.7098C181.77 21.3349 182.701 20.9647 183.635 20.5992L183.271 19.668C184.208 19.3012 185.148 18.9393 186.09 18.5821L186.445 19.5172C187.384 19.1613 188.325 18.8102 189.268 18.4639L188.924 17.5252C189.866 17.1793 190.811 16.8382 191.758 16.502L192.093 17.4444C193.036 17.1093 193.982 16.7791 194.93 16.4537L194.605 15.5078C195.557 15.1813 196.511 14.8596 197.466 14.5428L197.781 15.492C198.734 15.1763 199.688 14.8655 200.645 14.5595L200.341 13.607C201.299 13.3005 202.26 12.9989 203.223 12.7022L203.518 13.6579C204.474 13.3634 205.432 13.0737 206.392 12.789L206.107 11.8303C207.071 11.5445 208.036 11.2637 209.004 10.9878L209.278 11.9495C210.243 11.6746 211.209 11.4046 212.177 11.1396L211.913 10.175C212.885 9.90907 213.859 9.64807 214.835 9.39207L215.088 10.3593C216.057 10.1052 217.028 9.85604 218.001 9.61183L217.757 8.64193C218.731 8.39751 219.706 8.15806 220.684 7.92359L220.917 8.896C221.891 8.66236 222.867 8.43369 223.845 8.21002L223.622 7.2352C224.603 7.01075 225.586 6.79131 226.571 6.57693L226.784 7.55406C227.765 7.34043 228.749 7.13182 229.734 6.92828L229.532 5.94896C230.514 5.746 231.499 5.54805 232.485 5.35514L232.677 6.33654C233.659 6.14451 234.642 5.95749 235.627 5.77551L235.446 4.79215C236.434 4.60953 237.425 4.43198 238.417 4.25951L238.588 5.24473C239.577 5.07287 240.568 4.90607 241.56 4.74436L241.399 3.75738C242.394 3.59523 243.39 3.43818 244.389 3.28626L244.539 4.27488C245.526 4.12466 246.515 3.97948 247.506 3.83936L247.366 2.84922C248.36 2.70861 249.355 2.57309 250.352 2.44268L250.482 3.43423C251.476 3.30427 252.471 3.1794 253.468 3.05965L253.349 2.06679C254.349 1.94662 255.351 1.83159 256.355 1.72172L256.463 2.71578C257.461 2.60658 258.46 2.50249 259.46 2.40356L259.362 1.40841C260.359 1.30981 261.358 1.21631 262.358 1.12793L262.446 2.12404C263.442 2.03597 264.44 1.95299 265.44 1.87514L265.362 0.878164C266.365 0.800048 267.369 0.727077 268.375 0.659279L268.442 1.65701C269.445 1.58945 270.448 1.52704 271.453 1.46981L271.396 0.471426C272.401 0.414248 273.406 0.362225 274.413 0.31538L274.46 1.3143C275.457 1.26791 276.455 1.22662 277.455 1.19044L277.419 0.191098C278.422 0.154803 279.427 0.123647 280.433 0.0976583L280.458 1.09732C281.461 1.07142 282.464 1.05067 283.469 1.03509L283.454 0.0352146C284.462 0.0195828 285.472 0.00914248 286.483 0.00391912L286.488 1.00391C286.992 1.0013 287.496 1 288 1C288.504 1 289.008 1.0013 289.512 1.0039L289.517 0.00391691C290.528 0.00913883 291.537 0.0195778 292.546 0.0352082L292.53 1.03509C293.535 1.05067 294.539 1.07142 295.541 1.09731L295.567 0.097648C296.573 0.123636 297.577 0.15479 298.581 0.191084L298.545 1.19043C299.544 1.2266 300.543 1.26789 301.54 1.31428L301.586 0.315363C302.593 0.362206 303.599 0.414228 304.603 0.471405L304.546 1.46979C305.551 1.52702 306.555 1.58943 307.557 1.65699L307.625 0.659254C308.63 0.727052 309.635 0.800022 310.638 0.878138L310.56 1.87512C311.56 1.95296 312.557 2.03594 313.554 2.12401L313.642 1.1279C314.642 1.21628 315.641 1.30978 316.638 1.40838L316.539 2.40352C317.54 2.50246 318.539 2.60655 319.536 2.71575L319.645 1.72169C320.649 1.83155 321.651 1.94659 322.651 2.06675L322.532 3.05961C323.529 3.17936 324.524 3.30423 325.518 3.43419L325.647 2.44264C326.644 2.57305 327.64 2.70857 328.634 2.84918L328.494 3.83932C329.484 3.97944 330.473 4.12462 331.46 4.27484L331.611 3.28622C332.609 3.43813 333.606 3.59518 334.601 3.75734L334.44 4.74432C335.432 4.90602 336.423 5.07282 337.411 5.24469L337.583 4.25946C338.575 4.43193 339.565 4.60949 340.554 4.7921L340.372 5.77547C341.358 5.95744 342.341 6.14446 343.323 6.33649L343.515 5.35509C344.501 5.548 345.485 5.74595 346.468 5.94891L346.266 6.92823C347.251 7.13178 348.234 7.34038 349.216 7.55401L349.429 6.57688C350.414 6.79126 351.397 7.0107 352.378 7.23515L352.155 8.20997C353.133 8.43364 354.109 8.66231 355.083 8.89595L355.316 7.92354C356.294 8.15801 357.269 8.39746 358.243 8.64189L357.999 9.61178C358.972 9.85599 359.943 10.1052 360.911 10.3593L361.165 9.39202C362.141 9.64802 363.115 9.90902 364.087 10.175L363.823 11.1395C364.791 11.4046 365.757 11.6745 366.722 11.9495L366.996 10.9878C367.963 11.2637 368.929 11.5445 369.892 11.8302L369.608 12.7889C370.568 13.0737 371.526 13.3633 372.482 13.6578L372.777 12.7021C373.74 12.9988 374.7 13.3005 375.659 13.607L375.355 14.5595C376.312 14.8654 377.266 15.1763 378.219 15.492L378.533 14.5427C379.489 14.8596 380.443 15.1812 381.394 15.5078L381.07 16.4536C382.018 16.779 382.964 17.1093 383.907 17.4443L384.242 16.502C385.189 16.8382 386.134 17.1793 387.076 17.5251L386.731 18.4639C387.675 18.8102 388.616 19.1613 389.555 19.5172L389.909 18.5821C390.852 18.9392 391.791 19.3012 392.729 19.6679L392.365 20.5992C393.299 20.9646 394.23 21.3349 395.16 21.7098L395.534 20.7824C396.466 21.1587 397.397 21.5397 398.324 21.9254L397.94 22.8488C398.866 23.2337 399.79 23.6234 400.711 24.0177L401.104 23.0984C402.031 23.4952 402.955 23.8967 403.876 24.3028L403.473 25.2179C404.392 25.6227 405.307 26.0321 406.221 26.4462L406.634 25.5354C407.55 25.951 408.464 26.3712 409.375 26.796L408.953 27.7024C409.861 28.1257 410.766 28.5537 411.669 28.9863L412.101 28.0844C413.01 28.5196 413.915 28.9594 414.818 29.4037L414.377 30.301C415.278 30.7442 416.176 31.1921 417.071 31.6445L417.522 30.7519C418.421 31.2059 419.316 31.6645 420.209 32.1276L419.749 33.0153C420.639 33.4768 421.526 33.9428 422.411 34.4134L422.881 33.5305C423.768 34.0028 424.653 34.4796 425.536 34.9609L425.057 35.8388C425.938 36.3196 426.817 36.8049 427.693 37.2947L428.181 36.4219C429.06 36.9134 429.936 37.4094 430.809 37.9098L430.312 38.7774C431.182 39.2761 432.049 39.7792 432.914 40.2868L433.42 39.4244C434.287 39.9337 435.152 40.4474 436.013 40.9655L435.498 41.8225C436.358 42.3393 437.214 42.8606 438.068 43.3862L438.592 42.5346C439.45 43.0626 440.304 43.595 441.156 44.1318L440.623 44.9778C441.472 45.5126 442.317 46.0518 443.16 46.5953L443.702 45.755C444.548 46.3004 445.39 46.8501 446.23 47.4041L445.679 48.2387C446.515 48.7908 447.349 49.3471 448.179 49.9077L448.739 49.0788C449.573 49.6422 450.405 50.2099 451.233 50.7817L450.665 51.6047C451.491 52.1747 452.313 52.7489 453.133 53.3273L453.709 52.5103C454.532 53.0908 455.351 53.6754 456.166 54.2642L455.581 55.0751C456.394 55.6618 457.204 56.2527 458.011 56.8478L458.604 56.043C459.414 56.6404 460.221 57.2418 461.024 57.8474L460.422 58.6459C461.223 59.2499 462.021 59.858 462.815 60.4702L463.426 59.678C464.223 60.2923 465.017 60.9107 465.808 61.5332L465.189 62.3189C465.977 62.9392 466.762 63.5636 467.543 64.1919L468.17 63.4127C468.954 64.0432 469.734 64.6778 470.512 65.3163L469.877 66.089C470.652 66.7257 471.423 67.3664 472.191 68.011L472.834 67.245C473.605 67.892 474.373 68.543 475.137 69.1979L474.486 69.9572C475.248 70.6099 476.006 71.2664 476.76 71.9269L477.419 71.1745C478.176 71.8372 478.93 72.5039 479.68 73.1745L479.013 73.92C479.761 74.5883 480.505 75.2604 481.246 75.9363L481.92 75.1978C482.663 75.8763 483.403 76.5586 484.139 77.2448L483.457 77.9763C484.191 78.6601 484.921 79.3477 485.647 80.039L486.337 79.3147C487.065 80.0084 487.791 80.706 488.512 81.4072L487.816 82.1244C488.535 82.8233 489.25 83.5259 489.962 84.2322L490.666 83.5224C491.381 84.2311 492.091 84.9435 492.798 85.6597L492.087 86.3622C492.791 87.0758 493.492 87.7931 494.189 88.5141L494.908 87.8191C495.607 88.5425 496.303 89.2696 496.995 90.0004L496.268 90.6879C496.958 91.4161 497.644 92.1479 498.326 92.8834L499.059 92.2034C499.743 92.9414 500.424 93.6829 501.1 94.4281L500.36 95.1003C501.034 95.8425 501.704 96.5883 502.37 97.3375L503.118 96.673C503.786 97.4248 504.451 98.1802 505.112 98.939L504.358 99.5957C505.016 100.352 505.671 101.112 506.321 101.875L507.082 101.226C507.735 101.992 508.384 102.761 509.029 103.534L508.262 104.175C508.904 104.944 509.543 105.718 510.178 106.494L510.952 105.861C511.589 106.64 512.221 107.422 512.85 108.208L512.069 108.833C512.695 109.616 513.318 110.402 513.936 111.191L514.723 110.575C515.344 111.367 515.96 112.163 516.573 112.962L515.779 113.57C516.389 114.366 516.995 115.166 517.597 115.968L518.397 115.368C519.001 116.173 519.6 116.981 520.195 117.792L519.389 118.383C519.982 119.192 520.571 120.003 521.156 120.817L521.968 120.234C522.555 121.051 523.138 121.872 523.716 122.695L522.898 123.27C523.474 124.091 524.046 124.915 524.614 125.742L525.439 125.176C526.008 126.006 526.574 126.838 527.135 127.674L526.305 128.232C526.864 129.064 527.418 129.898 527.968 130.736L528.804 130.187C529.356 131.028 529.904 131.872 530.447 132.719L529.606 133.259C530.147 134.103 530.684 134.95 531.217 135.8L532.064 135.269C532.599 136.122 533.13 136.978 533.656 137.837L532.803 138.359C533.326 139.214 533.846 140.071 534.36 140.932L535.219 140.419C535.735 141.281 536.247 142.147 536.754 143.016L535.89 143.52C536.396 144.386 536.897 145.254 537.394 146.125L538.263 145.63C538.761 146.504 539.255 147.382 539.745 148.262L538.871 148.748C539.359 149.625 539.842 150.505 540.321 151.387L541.2 150.91C541.679 151.793 542.154 152.679 542.624 153.568L541.74 154.036C542.209 154.921 542.673 155.81 543.133 156.701L544.022 156.242C544.483 157.136 544.939 158.033 545.392 158.933L544.498 159.382C544.949 160.278 545.395 161.177 545.836 162.079L546.734 161.639C547.177 162.543 547.615 163.449 548.048 164.358L547.145 164.789C547.576 165.693 548.002 166.599 548.424 167.508L549.331 167.087C549.754 167.999 550.172 168.914 550.586 169.831L549.674 170.243C550.087 171.157 550.494 172.073 550.897 172.993L551.813 172.591C552.218 173.513 552.618 174.438 553.013 175.366L552.093 175.758C552.485 176.679 552.873 177.603 553.256 178.529L554.18 178.147C554.564 179.076 554.943 180.007 555.318 180.94L554.39 181.312C554.763 182.242 555.132 183.175 555.496 184.11L556.428 183.747C556.793 184.685 557.153 185.626 557.509 186.569L556.573 186.921C556.927 187.861 557.277 188.803 557.621 189.747L558.561 189.404C558.905 190.347 559.244 191.292 559.579 192.239L558.636 192.572C558.97 193.516 559.298 194.463 559.622 195.412L560.569 195.088C560.894 196.04 561.214 196.995 561.529 197.951L560.58 198.264C560.894 199.217 561.203 200.173 561.508 201.13L562.461 200.827C562.766 201.786 563.066 202.747 563.361 203.71L562.405 204.003C562.698 204.96 562.986 205.918 563.27 206.879L564.229 206.596C564.513 207.56 564.793 208.526 565.067 209.494L564.105 209.767C564.379 210.731 564.647 211.698 564.911 212.667L565.876 212.404C566.141 213.376 566.401 214.351 566.655 215.327L565.688 215.579C565.941 216.548 566.188 217.519 566.431 218.492L567.402 218.25C567.645 219.223 567.883 220.199 568.117 221.177L567.144 221.409C567.376 222.383 567.604 223.36 567.826 224.338L568.802 224.116C569.025 225.098 569.243 226.081 569.457 227.066L568.479 227.278C568.692 228.26 568.899 229.244 569.102 230.229L570.081 230.028C570.283 231.011 570.48 231.995 570.672 232.981L569.691 233.172C569.882 234.154 570.068 235.138 570.249 236.123L571.232 235.943C571.414 236.931 571.591 237.922 571.762 238.915L570.777 239.085C570.948 240.074 571.114 241.065 571.275 242.057L572.262 241.897C572.423 242.892 572.579 243.889 572.731 244.887L571.742 245.036C571.891 246.024 572.036 247.013 572.175 248.004L573.165 247.864C573.305 248.858 573.44 249.854 573.57 250.851L572.578 250.98C572.708 251.974 572.832 252.97 572.951 253.967L573.944 253.848C574.063 254.848 574.178 255.851 574.287 256.854L573.293 256.962C573.402 257.96 573.505 258.959 573.604 259.959L574.599 259.861C574.697 260.858 574.79 261.857 574.878 262.857L573.882 262.945C573.969 263.941 574.052 264.939 574.129 265.939L575.126 265.862C575.204 266.865 575.277 267.869 575.344 268.875L574.346 268.942C574.414 269.944 574.476 270.948 574.533 271.953L575.531 271.897C575.588 272.901 575.64 273.906 575.686 274.913L574.687 274.959C574.733 275.956 574.775 276.955 574.811 277.955L575.81 277.919C575.846 278.922 575.877 279.927 575.903 280.932L574.903 280.958C574.929 281.961 574.95 282.964 574.965 283.969L575.965 283.954Z" stroke="url(#paint0_linear)" stroke-width="2" stroke-miterlimit="5.24084" stroke-linejoin="round" stroke-dasharray="3 3"/>
<defs>
<linearGradient id="paint0_linear" x1="-3.3706e-08" y1="312.468" x2="576" y2="308.929" gradientUnits="userSpaceOnUse">
<stop stop-color="#DFDFDF"/>
<stop offset="1" stop-color="#DFDFDF" stop-opacity="0"/>
</linearGradient>
</defs>
</svg>
