<svg width="24" height="24" viewBox="0 0 24 24" fill="none" xmlns="http://www.w3.org/2000/svg">
<g clip-path="url(#clip0)">
<path d="M0.32684 12.7891L7.46884 19.9311C7.9046 20.3669 8.6113 20.3669 9.04705 19.9311C9.48289 19.4953 9.48289 18.7888 9.04705 18.3529L3.81008 13.1159L22.8841 13.1159C23.5003 13.1159 24 12.6163 24 12C24 11.3838 23.5003 10.8841 22.8841 10.8841L3.81008 10.8841L9.04687 5.6471C9.48271 5.21126 9.48271 4.50474 9.04687 4.0689C8.82904 3.85115 8.54336 3.74206 8.25777 3.74206C7.97218 3.74206 7.68659 3.85115 7.46867 4.0689L0.32684 11.2109C-0.109 11.6467 -0.109 12.3533 0.32684 12.7891Z" fill="#00C853"/>
</g>
<defs>
<clipPath id="clip0">
<rect width="24" height="24" fill="white" transform="translate(24 24) rotate(-180)"/>
</clipPath>
</defs>
</svg>
