<svg width="24" height="24" viewBox="0 0 24 24" fill="none" xmlns="http://www.w3.org/2000/svg">
<g clip-path="url(#clip0)">
<path d="M23.6732 11.2109L16.5312 4.06888C16.0954 3.63313 15.3887 3.63313 14.953 4.06888C14.5171 4.50472 14.5171 5.21124 14.953 5.64708L20.1899 10.8841L1.11594 10.8841C0.499673 10.8841 0 11.3837 0 12C0 12.6162 0.499673 13.1159 1.11594 13.1159L20.1899 13.1159L14.9531 18.3529C14.5173 18.7887 14.5173 19.4953 14.9531 19.9311C15.171 20.1488 15.4566 20.2579 15.7422 20.2579C16.0278 20.2579 16.3134 20.1488 16.5313 19.9311L23.6732 12.7891C24.109 12.3533 24.109 11.6467 23.6732 11.2109Z" fill="#00C853"/>
</g>
<defs>
<clipPath id="clip0">
<rect width="24" height="24" fill="white"/>
</clipPath>
</defs>
</svg>
