<svg width="161" height="161" viewBox="0 0 161 161" fill="none" xmlns="http://www.w3.org/2000/svg">
<path d="M79.9327 29.3831L85.4001 28.397L85.5776 29.3811L88.3113 28.8881C89.1702 28.7332 90.0272 28.613 90.8807 28.5266L90.78 27.5317C92.5759 27.3498 94.3581 27.3128 96.1137 27.412L96.0574 28.4104C97.7984 28.5087 99.5126 28.7448 101.187 29.1099L101.4 28.1328C103.149 28.5142 104.856 29.0321 106.507 29.6767L106.143 30.6082C107.758 31.2385 109.317 31.9937 110.806 32.8641L111.31 32.0007C112.848 32.8994 114.314 33.9172 115.693 35.0441L115.061 35.8185C116.396 36.9099 117.649 38.1067 118.803 39.399L119.549 38.7327C120.73 40.0543 121.811 41.4729 122.78 42.9789L121.939 43.5198C122.866 44.9611 123.686 46.4847 124.386 48.0817L125.302 47.6801C126.008 49.2905 126.596 50.9733 127.053 52.7196L126.086 52.9728C126.303 53.8028 126.49 54.6477 126.645 55.5066L127.138 58.2403L128.122 58.0628L129.108 63.5302L128.124 63.7077L129.11 69.1751L130.094 68.9976L131.08 74.465L130.096 74.6425L131.082 80.1099L132.066 79.9324L133.052 85.3998L132.068 85.5773L132.561 88.311C132.716 89.1699 132.836 90.0269 132.923 90.8804L133.918 90.7797C134.1 92.5757 134.137 94.3578 134.038 96.1135L133.039 96.0571C132.941 97.7981 132.705 99.5123 132.34 101.187L133.317 101.4C132.935 103.149 132.417 104.856 131.773 106.507L130.841 106.143C130.211 107.757 129.456 109.316 128.585 110.806L129.449 111.31C128.55 112.848 127.532 114.314 126.405 115.693L125.631 115.06C124.54 116.396 123.343 117.648 122.051 118.803L122.717 119.549C121.395 120.729 119.977 121.811 118.471 122.779L117.93 121.938C116.488 122.865 114.965 123.686 113.368 124.386L113.769 125.302C112.159 126.008 110.476 126.596 108.73 127.053L108.477 126.086C107.647 126.303 106.802 126.49 105.943 126.644L103.209 127.137L103.387 128.122L97.9193 129.108L97.7418 128.124L92.2744 129.11L92.4519 130.094L86.9845 131.08L86.807 130.096L81.3396 131.082L81.5171 132.066L76.0497 133.052L75.8722 132.068L73.1385 132.561C72.2796 132.716 71.4226 132.836 70.5691 132.923L70.6698 133.918C68.8739 134.099 67.0917 134.136 65.336 134.037L65.3924 133.039C63.6514 132.941 61.9372 132.704 60.263 132.339L60.0499 133.316C58.3005 132.935 56.5933 132.417 54.9426 131.773L55.3063 130.841C53.6921 130.211 52.1332 129.455 50.6439 128.585L50.1393 129.448C48.6016 128.55 47.1359 127.532 45.7566 126.405L46.3893 125.631C45.0534 124.539 43.8012 123.343 42.6467 122.05L41.9009 122.716C40.7203 121.395 39.6386 119.976 38.67 118.47L39.5111 117.929C38.5841 116.488 37.764 114.964 37.0636 113.367L36.1478 113.769C35.4416 112.159 34.8536 110.476 34.3966 108.73L35.364 108.476C35.1468 107.646 34.96 106.802 34.8051 105.943L34.312 103.209L33.3279 103.386L32.3418 97.919L33.3259 97.7415L32.3398 92.2741L31.3556 92.4516L30.3695 86.9842L31.3537 86.8067L30.3675 81.3393L29.3834 81.5168L28.3973 76.0494L29.3814 75.8719L28.8884 73.1382C28.7334 72.2793 28.6133 71.4223 28.5269 70.5688L27.5319 70.6695C27.3501 68.8736 27.3131 67.0914 27.4122 65.3358L28.4107 65.3921C28.5089 63.6511 28.7451 61.9369 29.1102 60.2627L28.1331 60.0497C28.5145 58.3002 29.0324 56.593 29.677 54.9423L30.6085 55.306C31.2388 53.6918 31.994 52.133 32.8644 50.6436L32.001 50.139C32.8997 48.6013 33.9175 47.1356 35.0444 45.7563L35.8188 46.389C36.9102 45.0531 38.107 43.8009 39.3993 42.6464L38.733 41.9006C40.0546 40.72 41.4732 39.6383 42.9792 38.6697L43.5201 39.5108C44.9614 38.5838 46.485 37.7637 48.082 37.0633L47.6804 36.1475C49.2908 35.4413 50.9736 34.8533 52.7199 34.3963L52.9731 35.3637C53.803 35.1465 54.648 34.9597 55.5069 34.8048L58.2406 34.3117L58.0631 33.3276L63.5305 32.3415L63.708 33.3256L69.1754 32.3395L68.9979 31.3554L74.4653 30.3692L74.6428 31.3534L80.1102 30.3672L79.9327 29.3831Z" stroke="white" stroke-width="2" stroke-dasharray="5 5"/>
</svg>
