<svg width="20" height="20" viewBox="0 0 20 20" fill="none" xmlns="http://www.w3.org/2000/svg">
<path d="M12.2617 14.7148C13.875 12.0391 15.9141 8.27734 15.9141 6.34375C15.9141 3.08203 13.2617 0.429688 10 0.429688C6.73828 0.429688 4.08594 3.08203 4.08594 6.34375C4.08594 8.27734 6.125 12.0391 7.73828 14.7148C5.82422 14.8594 1.46875 15.3789 1.46875 17.1016C1.46875 18.7969 5.89062 19.5703 10.0039 19.5703C14.1133 19.5703 18.5391 18.7969 18.5391 17.1016C18.5352 15.3789 14.1758 14.8594 12.2617 14.7148ZM4.90234 6.34375C4.90234 3.53125 7.19141 1.24219 10 1.24219C12.8125 1.24219 15.1016 3.53125 15.1016 6.34375C15.1016 8.80078 11.1875 14.9648 10 16.7773C8.8125 14.9648 4.90234 8.80078 4.90234 6.34375ZM10 18.7539C5.00391 18.7539 2.28125 17.6602 2.28125 17.0977C2.28125 16.6641 4.07812 15.7305 8.21875 15.4922C8.99609 16.7461 9.58594 17.6328 9.66406 17.7383C9.76953 17.8789 10.0781 18.0469 10.3398 17.7383C10.4219 17.6406 11.0078 16.7461 11.7852 15.4922C15.9258 15.7305 17.7227 16.6602 17.7227 17.0977C17.7188 17.6641 14.9961 18.7539 10 18.7539Z" fill="#2960EF"/>
<path d="M12.5742 6.34375C12.5742 4.92187 11.4219 3.76953 10 3.76953C8.57813 3.76953 7.42578 4.92187 7.42578 6.34375C7.42578 7.76563 8.57813 8.91797 10 8.91797C11.4219 8.91797 12.5742 7.76563 12.5742 6.34375ZM8.23828 6.34375C8.23828 5.37109 9.02734 4.58203 10 4.58203C10.9727 4.58203 11.7617 5.37109 11.7617 6.34375C11.7617 7.31641 10.9727 8.10547 10 8.10547C9.02734 8.10547 8.23828 7.31641 8.23828 6.34375Z" fill="#2960EF"/>
</svg>
