<?xml version="1.0" encoding="iso-8859-1"?>
<!-- Generator: Adobe Illustrator 19.0.0, SVG Export Plug-In . SVG Version: 6.00 Build 0)  -->
<svg version="1.1" id="Layer_1" xmlns="http://www.w3.org/2000/svg" xmlns:xlink="http://www.w3.org/1999/xlink" x="0px" y="0px"
	 viewBox="0 0 512 512" style="enable-background:new 0 0 512 512;" xml:space="preserve">
<path style="fill:#1E0478;" d="M438.206,415.131c4.813,9.027,4.536,19.658-0.727,28.43c-5.264,8.761-14.51,14.002-24.737,14.002
	h-99.166C311.891,487.864,286.716,512,256,512s-55.891-24.136-57.588-54.437H99.258c-10.227,0-19.473-5.241-24.737-14.002
	c-5.264-8.773-5.541-19.404-0.727-28.43l24.979-46.876V252.491c0-71.566,48.053-132.109,113.594-151.063V43.632
	C212.368,19.577,231.944,0,256,0s43.632,19.577,43.632,43.632v57.796c65.541,18.954,113.594,79.496,113.594,151.063v115.764
	L438.206,415.131z M417.682,431.672c0.508-0.843,1.535-3.082,0.15-5.679l-23.548-44.198h-276.57l-23.548,44.198
	c-1.385,2.597-0.358,4.836,0.15,5.679c0.496,0.843,1.997,2.805,4.94,2.805h313.484C415.685,434.477,417.186,432.515,417.682,431.672
	z M390.141,358.709V252.491c0-73.967-60.173-134.141-134.141-134.141s-134.141,60.174-134.141,134.141v106.218H390.141z
	 M290.433,457.563h-68.865c1.639,17.557,16.449,31.351,34.433,31.351S288.794,475.12,290.433,457.563z M276.547,96.603V43.632
	c0-11.324-9.223-20.546-20.546-20.546c-11.324,0-20.546,9.223-20.546,20.546v52.971c6.73-0.889,13.586-1.339,20.546-1.339
	S269.817,95.714,276.547,96.603z"/>
<g>
	<path style="fill:#9B8CCC;" d="M417.832,425.993c1.385,2.597,0.358,4.836-0.15,5.679c-0.496,0.843-1.997,2.805-4.94,2.805H99.258
		c-2.943,0-4.444-1.962-4.94-2.805c-0.508-0.843-1.535-3.082-0.15-5.679l23.548-44.198h276.57L417.832,425.993z"/>
	<path style="fill:#9B8CCC;" d="M390.141,252.491v106.218H121.859V252.491c0-73.967,60.174-134.141,134.141-134.141
		S390.141,178.524,390.141,252.491z M267.543,160.655c0-6.372-5.171-11.543-11.543-11.543c-56.999,0-103.379,46.38-103.379,103.379
		c0,6.372,5.171,11.543,11.543,11.543c6.372,0,11.543-5.171,11.543-11.543c0-44.279,36.026-80.293,80.293-80.293
		C262.372,172.198,267.543,167.027,267.543,160.655z"/>
</g>
<path style="fill:#FFFFFF;" d="M221.567,457.563h68.865c-1.639,17.557-16.449,31.351-34.433,31.351S223.206,475.12,221.567,457.563z
	"/>
<path style="fill:#94E7EF;" d="M276.547,43.632v52.971c-6.73-0.889-13.586-1.339-20.546-1.339s-13.817,0.45-20.546,1.339V43.632
	c0-11.324,9.223-20.546,20.546-20.546C267.324,23.086,276.547,32.309,276.547,43.632z"/>
<path style="fill:#1E0478;" d="M256,149.112c6.372,0,11.543,5.171,11.543,11.543c0,6.372-5.171,11.543-11.543,11.543
	c-44.267,0-80.293,36.014-80.293,80.293c0,6.372-5.171,11.543-11.543,11.543c-6.372,0-11.543-5.171-11.543-11.543
	C152.621,195.492,199.001,149.112,256,149.112z"/>
<g>
</g>
<g>
</g>
<g>
</g>
<g>
</g>
<g>
</g>
<g>
</g>
<g>
</g>
<g>
</g>
<g>
</g>
<g>
</g>
<g>
</g>
<g>
</g>
<g>
</g>
<g>
</g>
<g>
</g>
</svg>
