<?xml version="1.0" encoding="utf-8"?>
<!-- Generator: Adobe Illustrator 17.0.0, SVG Export Plug-In . SVG Version: 6.00 Build 0)  -->
<!DOCTYPE svg PUBLIC "-//W3C//DTD SVG 1.1//EN" "http://www.w3.org/Graphics/SVG/1.1/DTD/svg11.dtd">
<svg version="1.1" id="Layer_1" xmlns="http://www.w3.org/2000/svg" xmlns:xlink="http://www.w3.org/1999/xlink" x="0px" y="0px"
	 width="108px" height="30px" viewBox="0 0 108 30" enable-background="new 0 0 108 30" xml:space="preserve">
<path fill="#00AEEF" d="M103.216,5.458v13.44h-9.694c-1.618,0-2.433-0.809-2.433-2.425V5.458c0-1.603-0.793-2.324-2.395-2.324
	c-1.593,0-2.382,0.752-2.382,2.324v10.914c0,4.837,2.422,7.261,7.169,7.261c4.187,0,8.928-1.328,9.823-1.645
	c0.214,1.097,0.963,1.66,2.26,1.66c0.015,0,0.028-0.016,0.042-0.016v0.016c1.607,0,2.394-0.78,2.394-2.397V5.458
	c0-1.818-1.108-2.324-2.378-2.324C104.015,3.119,103.216,3.898,103.216,5.458 M79.86,3.133c-1.618,0-2.419,0.765-2.436,2.324v13.44
	h-9.69c-1.621,0-2.437-0.809-2.437-2.425V5.458c0-1.603-0.804-2.324-2.391-2.324c-1.593,0-2.394,0.752-2.394,2.324v10.914
	c0,4.837,2.421,7.261,7.178,7.261c4.174,0,8.918-1.328,9.807-1.645c0.22,1.112,1.02,1.675,2.322,1.66c1.59,0,2.395-0.78,2.395-2.338
	V5.471C82.214,3.753,81.247,3.133,79.86,3.133 M51.752,15.664c0,1.617-1.632,3.247-3.253,3.247h-9.094V7.898h9.094
	c1.621,0,3.253,1.588,3.253,3.103V15.664z M48.499,3.147c-4.803,0-9.181,1.646-9.181,1.646s-0.888-1.646-2.334-1.646
	c-1.462,0-2.366,0.693-2.366,2.31v22.19c0,1.573,0.804,2.353,2.393,2.353c1.59,0,2.394-0.809,2.394-2.412v-5.601
	c2.086,0.881,6.276,1.66,9.121,1.66c4.63,0,7.998-3.235,7.998-8.07v-4.504C56.525,6.323,53.298,3.147,48.499,3.147 M25.57,16.487
	c0,1.618-0.801,2.425-2.422,2.425h-5.573V7.898h5.573c1.621,0,2.422,0.765,2.422,2.296V16.487z M7.198,18.912
	c-1.607,0-2.423-0.807-2.423-2.425v-6.293c0-1.531,0.816-2.296,2.423-2.296h5.589v11.014H7.198z M15.18,0
	c-1.606,0-2.394,0.795-2.394,2.412v2.382c-1.079-0.867-4.305-1.66-5.589-1.646C2.397,3.205,0,5.515,0,10.25v6.137
	c0,4.835,2.397,7.362,7.169,7.261c2.116-0.043,4.77-1.227,5.617-1.66v5.66c0,1.573,0.788,2.353,2.394,2.353
	c1.59,0,2.395-0.78,2.395-2.353v-5.66c0.978,0.476,3.559,1.66,5.6,1.66c4.788,0,7.182-2.425,7.182-7.261V10.25
	c0-4.735-2.407-7.058-7.21-7.102c-1.736-0.014-3.881,0.549-5.573,1.646V2.339C17.575,0.78,16.77,0,15.18,0"/>
</svg>
