<svg width="143" height="161" viewBox="0 0 143 161" fill="none" xmlns="http://www.w3.org/2000/svg">
<path d="M114.854 154.771L119.251 157.311L119.501 156.878L121.7 158.148C122.401 158.553 123.114 158.886 123.835 159.153L123.661 159.622C125.244 160.207 126.86 160.48 128.448 160.478L128.448 159.978C130.038 159.975 131.599 159.685 133.064 159.147L133.236 159.616C134.769 159.053 136.197 158.228 137.451 157.182L137.131 156.798C138.329 155.798 139.361 154.59 140.158 153.213L140.591 153.464C141.387 152.089 141.959 150.552 142.243 148.888L141.751 148.803C141.88 148.046 141.948 147.261 141.948 146.451L141.948 143.911L142.448 143.911L142.448 138.831L141.948 138.832L141.948 133.752L142.448 133.752L142.448 128.672L141.948 128.672L141.948 123.593L142.448 123.592L142.448 118.513L141.948 118.513L141.948 113.433L142.448 113.433L142.448 108.354L141.948 108.354L141.948 103.274L142.448 103.274L142.448 98.1942L141.948 98.1943L141.948 93.1146L142.448 93.1145L142.448 88.0348L141.948 88.0349L141.948 82.9553L142.448 82.9552L142.448 77.8755L141.948 77.8756L141.948 72.7959L142.448 72.7958L142.448 67.7162L141.948 67.7163L141.948 62.6366L142.448 62.6365L142.448 57.5569L141.948 57.557L141.948 52.4773L142.448 52.4772L142.448 47.3975L141.948 47.3976L141.948 42.318L142.448 42.3179L142.448 37.2382L141.948 37.2383L141.948 32.1586L142.448 32.1585L142.448 27.0789L141.948 27.079L141.948 21.9993L142.448 21.9992L142.448 16.9195L141.948 16.9197L141.948 14.3798C141.948 13.5702 141.88 12.785 141.751 12.0279L142.243 11.9434C141.959 10.2798 141.387 8.74297 140.591 7.36892L140.159 7.61972C139.362 6.24353 138.331 5.03594 137.132 4.03651L137.453 3.65238C136.199 2.60706 134.771 1.78219 133.239 1.21945L133.067 1.6889C131.602 1.15085 130.041 0.861556 128.451 0.85934L128.452 0.359243C126.864 0.357029 125.248 0.630559 123.665 1.21594L123.839 1.685C123.118 1.95141 122.405 2.28507 121.704 2.68998L119.505 3.95988L119.255 3.52681L114.858 6.06663L115.108 6.4997L110.712 9.03954L110.462 8.60647L106.065 11.1463L106.315 11.5794L101.918 14.1192L101.668 13.6861L97.2712 16.226L97.5211 16.659L93.1242 19.1989L92.8743 18.7658L88.4775 21.3056L88.7274 21.7387L84.3306 24.2785L84.0807 23.8455L79.6838 26.3853L79.9337 26.8184L75.5369 29.3582L75.287 28.9251L70.8902 31.465L71.1401 31.898L66.7433 34.4379L66.4934 34.0048L62.0965 36.5446L62.3464 36.9777L57.9496 39.5175L57.6997 39.0845L53.3029 41.6243L53.5528 42.0574L49.156 44.5972L48.906 44.1641L44.5092 46.704L44.7591 47.137L40.3623 49.6769L40.1124 49.2438L35.7156 51.7836L35.9655 52.2167L31.5686 54.7565L31.3187 54.3235L26.9219 56.8633L27.1718 57.2964L22.775 59.8362L22.5251 59.4031L18.1283 61.943L18.3782 62.376L13.9813 64.9159L13.7314 64.4828L9.33462 67.0226L9.58452 67.4557L7.3861 68.7256C6.68515 69.1305 6.03946 69.5822 5.44874 70.073L5.12937 69.6884C3.83137 70.767 2.78643 72.0308 1.99455 73.4074L2.42783 73.6568C1.63472 75.0356 1.10455 76.533 0.838031 78.0709L0.345475 77.9856C0.0667165 79.5942 0.0664337 81.2444 0.344643 82.8529L0.837231 82.7675C1.10323 84.3054 1.63288 85.8027 2.42553 87.1815L1.99217 87.4309C2.78358 88.8075 3.82809 90.0711 5.12572 91.1496L5.44522 90.7649C6.03578 91.2557 6.68131 91.7073 7.38213 92.1121L9.58052 93.382L9.33048 93.8151L13.7273 96.3549L13.9773 95.9218L18.3742 98.4617L18.1241 98.8948L22.521 101.435L22.771 101.002L27.1678 103.541L26.9178 103.974L31.3146 106.514L31.5647 106.081L35.9615 108.621L35.7114 109.054L40.1083 111.594L40.3583 111.161L44.7551 113.701L44.5051 114.134L48.9019 116.674L49.152 116.241L53.5488 118.78L53.2988 119.213L57.6956 121.753L57.9456 121.32L62.3425 123.86L62.0924 124.293L66.4892 126.833L66.7393 126.4L71.1361 128.94L70.8861 129.373L75.2829 131.913L75.5329 131.48L79.9298 134.019L79.6797 134.452L84.0765 136.992L84.3266 136.559L88.7234 139.099L88.4734 139.532L92.8702 142.072L93.1202 141.639L97.5171 144.179L97.267 144.612L101.664 147.152L101.914 146.718L106.311 149.258L106.061 149.691L110.457 152.231L110.708 151.798L115.104 154.338L114.854 154.771Z" stroke="#E0E0E0" stroke-dasharray="5 5"/>
</svg>
