<svg width="24" height="24" viewBox="0 0 24 24" fill="none" xmlns="http://www.w3.org/2000/svg">
<path d="M5.23849 0.383856C4.29955 -0.135115 3.19711 -0.123115 2.26416 0.391355L13.1985 10.4783L16.8718 6.80499L5.23849 0.383856Z" fill="#00C853"/>
<path d="M1.17046 1.42328C0.90348 1.85975 0.750488 2.35923 0.750488 2.8887V21.1067C0.750488 21.6196 0.88998 22.1086 1.14197 22.5361L12.1378 11.5402L1.17046 1.42328Z" fill="#00C853"/>
<path d="M21.7419 9.49284L18.2381 7.55945L14.3008 11.4952L19.126 15.9455L21.7434 14.5011C22.6853 13.9791 23.2493 13.0431 23.2493 11.9962C23.2478 10.9493 22.6853 10.0133 21.7419 9.49284Z" fill="#00C853"/>
<path d="M13.2402 12.5571L2.21436 23.583C2.69283 23.856 3.2178 24 3.74577 24C4.25574 24 4.76871 23.871 5.23818 23.6115L17.743 16.7104L13.2402 12.5571Z" fill="#00C853"/>
</svg>
