<svg width="139" height="93" viewBox="0 0 139 93" fill="none" xmlns="http://www.w3.org/2000/svg">
<path d="M76.0413 -11.848L80.3054 -13.8567L80.5184 -13.4044L82.6505 -14.4087C83.3828 -14.7537 84.122 -15.0266 84.8621 -15.232L84.7284 -15.7138C86.3546 -16.1651 87.9885 -16.3028 89.5707 -16.1682L89.5283 -15.67C91.113 -15.5351 92.6451 -15.1166 94.06 -14.4584L94.2709 -14.9117C95.7509 -14.2232 97.1062 -13.2821 98.2683 -12.1359L97.9172 -11.7799C99.0284 -10.6841 99.9557 -9.39483 100.636 -7.95708L101.088 -8.17085C101.767 -6.73534 102.208 -5.15631 102.354 -3.47494L101.856 -3.43189C101.922 -2.66671 101.924 -1.87873 101.857 -1.072L101.661 1.27658L102.159 1.31821L101.766 6.01538L101.268 5.97375L100.876 10.6709L101.374 10.7125L100.982 15.4097L100.483 15.3681L100.091 20.0652L100.589 20.1069L100.197 24.804L99.6984 24.7624L99.3059 29.4596L99.8042 29.5012L99.4117 34.1984L98.9135 34.1567L98.521 38.8539L99.0193 38.8955L98.6269 43.5927L98.1286 43.5511L97.7362 48.2482L98.2344 48.2899L97.842 52.987L97.3437 52.9454L96.9513 57.6426L97.4495 57.6842L97.0571 62.3813L96.5588 62.3397L96.1664 67.0369L96.6647 67.0785L96.2722 71.7757L95.7739 71.734L95.5777 74.0826C95.5103 74.8894 95.3771 75.666 95.1849 76.4096L95.669 76.5347C95.2467 78.1687 94.5491 79.6525 93.6414 80.9555L93.2311 80.6696C92.322 81.9746 91.1935 83.0922 89.9159 83.9884L90.2031 84.3977C88.8669 85.3351 87.3742 86.0383 85.8005 86.4717L85.6678 85.9896C84.1632 86.404 82.5829 86.5625 80.9978 86.4325L80.9569 86.9308C79.3743 86.801 77.7859 86.3941 76.2572 85.6792L76.469 85.2263C75.7732 84.901 75.0896 84.5092 74.4246 84.0474L72.4888 82.7032L72.2036 83.1139L68.332 80.4255L68.6172 80.0148L64.7455 77.3263L64.4603 77.737L60.5887 75.0486L60.8739 74.6379L57.0022 71.9494L56.7171 72.3601L52.8454 69.6717L53.1306 69.261L49.259 66.5725L48.9738 66.9832L45.1021 64.2948L45.3873 63.8841L41.5157 61.1956L41.2305 61.6063L37.3588 58.9179L37.644 58.5072L33.7724 55.8187L33.4872 56.2294L29.6156 53.541L29.9007 53.1303L26.0291 50.4418L25.7439 50.8525L21.8723 48.1641L22.1575 47.7534L18.2858 45.0649L18.0006 45.4756L14.129 42.7872L14.4142 42.3765L12.4783 41.0323C11.8134 40.5705 11.2074 40.0668 10.6595 39.5286L10.3091 39.8853C9.10523 38.7026 8.16902 37.3565 7.49449 35.9189L7.94714 35.7065C7.27155 34.2667 6.86797 32.7307 6.73058 31.1761L6.23252 31.2202C6.08882 29.5942 6.2262 27.95 6.6377 26.3704L7.12155 26.4965C7.51499 24.9863 8.16787 23.5385 9.073 22.2308L8.66187 21.9462C9.5656 20.6405 10.7122 19.4684 12.0957 18.5019L12.382 18.9118C13.0116 18.4719 13.6928 18.0758 14.4251 17.7308L16.5572 16.7264L16.3441 16.2741L20.6082 14.2654L20.8212 14.7177L25.0853 12.709L24.8723 12.2566L29.1363 10.2479L29.3494 10.7003L33.6135 8.69154L33.4004 8.23921L37.6645 6.23049L37.8776 6.68282L42.1417 4.6741L41.9286 4.22177L46.1927 2.21306L46.4058 2.66538L50.6699 0.656664L50.4568 0.204339L54.7209 -1.80438L54.9339 -1.35205L59.198 -3.36077L58.9849 -3.8131L63.249 -5.82181L63.4621 -5.36949L67.7262 -7.37821L67.5131 -7.83053L71.7772 -9.83925L71.9903 -9.38693L76.2544 -11.3956L76.0413 -11.848Z" stroke="#E0E0E0" stroke-dasharray="5 5"/>
</svg>
