<svg width="24" height="24" viewBox="0 0 24 24" fill="none" xmlns="http://www.w3.org/2000/svg">
<path d="M18.2461 15.8764C17.4621 15.1023 16.4832 15.1023 15.7041 15.8764C15.1098 16.4657 14.5155 17.055 13.9312 17.6543C13.7714 17.8192 13.6365 17.8541 13.4417 17.7442C13.0572 17.5345 12.6477 17.3647 12.2781 17.135C10.5551 16.0512 9.11179 14.6578 7.83328 13.0897C7.19902 12.3106 6.63468 11.4766 6.24014 10.5377C6.16023 10.3479 6.17521 10.223 6.33003 10.0682C6.92434 9.49387 7.50366 8.90456 8.08798 8.31525C8.90203 7.4962 8.90203 6.53732 8.08299 5.71329C7.61853 5.24383 7.15407 4.78437 6.68961 4.31492C6.21017 3.83548 5.73572 3.35104 5.25129 2.8766C4.4672 2.11249 3.48835 2.11249 2.70925 2.88159C2.10995 3.4709 1.53562 4.0752 0.926333 4.65452C0.361991 5.1889 0.077323 5.84313 0.0173928 6.60724C-0.0774965 7.85079 0.227148 9.02442 0.656647 10.1681C1.53562 12.5353 2.87406 14.6379 4.49717 16.5656C6.68961 19.1726 9.30656 21.2352 12.368 22.7234C13.7464 23.3927 15.1747 23.9071 16.7279 23.992C17.7967 24.0519 18.7256 23.7822 19.4697 22.9482C19.9791 22.3788 20.5534 21.8594 21.0928 21.3151C21.8919 20.506 21.8969 19.5272 21.1028 18.7281C20.1539 17.7742 19.2 16.8253 18.2461 15.8764Z" fill="#3E78F9"/>
<path d="M17.2921 11.8961L19.1349 11.5815C18.8453 9.88843 18.0462 8.35522 16.8326 7.13664C15.5491 5.85314 13.926 5.04408 12.1381 4.79437L11.8784 6.64721C13.2618 6.84198 14.5203 7.46625 15.5142 8.4601C16.4531 9.399 17.0674 10.5876 17.2921 11.8961Z" fill="#3E78F9"/>
<path d="M20.1736 3.88547C18.0461 1.75795 15.3543 0.414516 12.3827 0L12.123 1.85284C14.69 2.21242 17.0173 3.37606 18.8552 5.20892C20.5981 6.95189 21.7418 9.15432 22.1563 11.5765L23.9991 11.2619C23.5147 8.45513 22.1913 5.90811 20.1736 3.88547Z" fill="#3E78F9"/>
</svg>
