<svg width="447" height="303" viewBox="0 0 447 303" fill="none" xmlns="http://www.w3.org/2000/svg">
<path opacity="0.1" d="M0 -9H446V303C378.445 303 330.604 269.518 286.084 206.958C229.728 127.766 95.5586 141.365 42.292 84.221C14.1171 53.9952 1.24913 10.5747 0 -9Z" fill="url(#paint0_linear)"/>
<path opacity="0.5" d="M13 -9H449V291C387.439 291 339.564 272.2 289.821 213.546C212.711 122.621 109.815 141.262 55.8483 84.1573C27.3028 53.9521 14.2656 10.5613 13 -9Z" fill="url(#paint1_linear)"/>
<path d="M29 -9H445V275.769C327.685 279.557 312.617 236.194 257.149 184.448C189.485 121.323 124.691 145.31 63.8639 77.191C31.9166 41.4136 30.1955 10.556 29 -9Z" fill="url(#paint2_linear)"/>
<circle opacity="0.5" cx="390" cy="-54" r="90" stroke="#448AFF" stroke-width="20"/>
<circle opacity="0.4" cx="195" cy="25" r="20" fill="#448AFF"/>
<circle opacity="0.4" cx="304" cy="139" r="8" fill="#448AFF"/>
<circle opacity="0.4" cx="307.5" cy="69.5" r="5.5" fill="#448AFF"/>
<ellipse opacity="0.3" cx="437.5" cy="94" rx="19.5" ry="19" fill="#448AFF"/>
<defs>
<linearGradient id="paint0_linear" x1="223" y1="-9" x2="223" y2="303" gradientUnits="userSpaceOnUse">
<stop stop-color="#448AFF"/>
<stop offset="1" stop-color="#285FEE"/>
</linearGradient>
<linearGradient id="paint1_linear" x1="231" y1="-9" x2="231" y2="291" gradientUnits="userSpaceOnUse">
<stop stop-color="#448AFF"/>
<stop offset="1" stop-color="#285FEE"/>
</linearGradient>
<linearGradient id="paint2_linear" x1="237" y1="-9" x2="237" y2="276" gradientUnits="userSpaceOnUse">
<stop stop-color="#448AFF"/>
<stop offset="1" stop-color="#285FEE"/>
</linearGradient>
</defs>
</svg>
