<svg width="210" height="210" viewBox="0 0 210 210" fill="none" xmlns="http://www.w3.org/2000/svg">
<path d="M115.189 39.1277L119.943 38.2702L120.032 38.7622L122.409 38.3335C123.281 38.1763 124.15 38.0543 125.017 37.9666L124.966 37.4691C126.762 37.2873 128.545 37.2503 130.3 37.3494L130.272 37.8486C132.04 37.9484 133.78 38.1882 135.48 38.5588L135.586 38.0703C137.336 38.4517 139.043 38.9696 140.694 39.6141L140.512 40.0799C142.15 40.7198 143.733 41.4864 145.245 42.3699L145.497 41.9382C147.035 42.8369 148.5 43.8547 149.88 44.9815L149.563 45.3687C150.919 46.4766 152.19 47.6914 153.362 49.0033L153.735 48.6702C154.916 49.9917 155.998 51.4104 156.966 52.9164L156.546 53.1868C157.487 54.6501 158.319 56.197 159.031 57.8184L159.488 57.6176C160.195 59.228 160.783 60.9107 161.24 62.6571L160.756 62.7837C160.976 63.6261 161.166 64.4837 161.323 65.3553L161.752 67.7325L162.244 67.6438L163.102 72.3982L162.61 72.4869L163.467 77.2413L163.959 77.1526L164.817 81.907L164.325 81.9957L165.182 86.7501L165.674 86.6614L166.532 91.4158L166.04 91.5045L166.897 96.2589L167.389 96.1702L168.247 100.925L167.755 101.013L168.612 105.768L169.104 105.679L169.962 110.433L169.47 110.522L170.327 115.277L170.819 115.188L171.677 119.942L171.185 120.031L171.613 122.408C171.771 123.28 171.893 124.15 171.98 125.016L172.478 124.966C172.66 126.762 172.697 128.544 172.598 130.299L172.098 130.271C171.999 132.039 171.759 133.779 171.388 135.479L171.877 135.585C171.495 137.335 170.977 139.042 170.333 140.693L169.867 140.511C169.227 142.15 168.461 143.732 167.577 145.244L168.009 145.496C167.11 147.034 166.092 148.5 164.965 149.879L164.578 149.562C163.47 150.918 162.255 152.19 160.944 153.362L161.277 153.734C159.955 154.915 158.537 155.997 157.031 156.965L156.76 156.545C155.297 157.486 153.75 158.319 152.129 159.03L152.329 159.488C150.719 160.194 149.036 160.782 147.29 161.239L147.163 160.755C146.321 160.976 145.463 161.165 144.592 161.322L142.214 161.751L142.303 162.243L137.549 163.101L137.46 162.609L132.706 163.466L132.794 163.958L128.04 164.816L127.951 164.324L123.197 165.181L123.286 165.673L118.531 166.531L118.442 166.039L113.688 166.896L113.777 167.388L109.022 168.246L108.934 167.754L104.179 168.611L104.268 169.103L99.5136 169.961L99.4248 169.469L94.6704 170.326L94.7592 170.818L90.0048 171.676L89.916 171.184L87.5388 171.613C86.6672 171.77 85.7974 171.892 84.931 171.979L84.9814 172.477C83.1854 172.659 81.4033 172.696 79.6476 172.597L79.6758 172.097C77.9082 171.998 76.1678 171.758 74.468 171.387L74.3615 171.876C72.612 171.494 70.9049 170.976 69.2541 170.332L69.436 169.866C67.7973 169.226 66.215 168.46 64.7032 167.576L64.4509 168.008C62.9131 167.109 61.4474 166.091 60.0682 164.965L60.3845 164.577C59.0285 163.469 57.7574 162.255 56.5853 160.943L56.2125 161.276C55.0318 159.954 53.9501 158.536 52.9816 157.03L53.4021 156.759C52.461 155.296 51.6283 153.749 50.9173 152.128L50.4594 152.329C49.7531 150.718 49.1652 149.035 48.7081 147.289L49.1918 147.162C48.9713 146.32 48.7818 145.462 48.6245 144.591L48.1958 142.214L47.7037 142.302L46.8462 137.548L47.3383 137.459L46.4808 132.705L45.9887 132.793L45.1312 128.039L45.6232 127.95L44.7657 123.196L44.2737 123.285L43.4161 118.53L43.9082 118.442L43.0507 113.687L42.5586 113.776L41.7011 109.021L42.1932 108.933L41.3356 104.178L40.8436 104.267L39.9861 99.5127L40.4781 99.4239L39.6206 94.6695L39.1286 94.7583L38.271 90.0039L38.7631 89.9151L38.3343 87.5379C38.1771 86.6663 38.0552 85.7965 37.9674 84.9301L37.47 84.9805C37.2881 83.1845 37.2512 81.4024 37.3503 79.6467L37.8495 79.6749C37.9493 77.9073 38.1891 76.167 38.5597 74.4671L38.0711 74.3606C38.4526 72.6112 38.9704 70.904 39.615 69.2532L40.0808 69.4351C40.7206 67.7964 41.4873 66.2141 42.3708 64.7023L41.9391 64.45C42.8377 62.9123 43.8555 61.4465 44.9824 60.0673L45.3696 60.3836C46.4775 59.0276 47.6923 57.7565 49.0042 56.5845L48.6711 56.2116C49.9926 55.0309 51.4113 53.9493 52.9172 52.9807L53.1877 53.4012C54.651 52.4601 56.1979 51.6274 57.8192 50.9164L57.6184 50.4585C59.2288 49.7523 60.9116 49.1643 62.6579 48.7073L62.7845 49.191C63.627 48.9705 64.4845 48.7809 65.3562 48.6237L67.7334 48.1949L67.6446 47.7029L72.399 46.8453L72.4878 47.3374L77.2422 46.4799L77.1534 45.9878L81.9078 45.1303L81.9966 45.6224L86.751 44.7649L86.6622 44.2728L91.4166 43.4153L91.5054 43.9073L96.2598 43.0498L96.171 42.5578L100.925 41.7002L101.014 42.1923L105.769 41.3348L105.68 40.8427L110.434 39.9852L110.523 40.4773L115.277 39.6197L115.189 39.1277Z" stroke="white" stroke-dasharray="5 5"/>
</svg>
