<svg width="85" height="130" viewBox="0 0 85 130" fill="none" xmlns="http://www.w3.org/2000/svg">
<g opacity="0.3">
<circle cx="2.83382" cy="2.83333" r="2.83333" fill="white"/>
<circle cx="18.7005" cy="2.83333" r="2.83333" fill="white"/>
<circle cx="34.5672" cy="2.83333" r="2.83333" fill="white"/>
<circle cx="50.4339" cy="2.83333" r="2.83333" fill="white"/>
<circle cx="66.3006" cy="2.83333" r="2.83333" fill="white"/>
<circle cx="82.1673" cy="2.83333" r="2.83333" fill="white"/>
<circle cx="2.83382" cy="18.1334" r="2.83333" fill="white"/>
<circle cx="18.7005" cy="18.1334" r="2.83333" fill="white"/>
<circle cx="34.5672" cy="18.1334" r="2.83333" fill="white"/>
<circle cx="50.4339" cy="18.1334" r="2.83333" fill="white"/>
<circle cx="66.3006" cy="18.1334" r="2.83333" fill="white"/>
<circle cx="82.1673" cy="18.1334" r="2.83333" fill="white"/>
<circle cx="2.83382" cy="33.4333" r="2.83333" fill="white"/>
<circle cx="18.7005" cy="33.4333" r="2.83333" fill="white"/>
<circle cx="34.5672" cy="33.4333" r="2.83333" fill="white"/>
<circle cx="50.4339" cy="33.4333" r="2.83333" fill="white"/>
<circle cx="66.3006" cy="33.4333" r="2.83333" fill="white"/>
<circle cx="82.1673" cy="33.4333" r="2.83333" fill="white"/>
<circle cx="2.83382" cy="48.7334" r="2.83333" fill="white"/>
<circle cx="18.7005" cy="48.7334" r="2.83333" fill="white"/>
<circle cx="34.5672" cy="48.7334" r="2.83333" fill="white"/>
<circle cx="50.4339" cy="48.7334" r="2.83333" fill="white"/>
<circle cx="66.3006" cy="48.7334" r="2.83333" fill="white"/>
<circle cx="82.1673" cy="48.7334" r="2.83333" fill="white"/>
<circle cx="2.83382" cy="64.0333" r="2.83333" fill="white"/>
<circle cx="18.7005" cy="64.0333" r="2.83333" fill="white"/>
<circle cx="34.5672" cy="64.0333" r="2.83333" fill="white"/>
<circle cx="50.4339" cy="64.0333" r="2.83333" fill="white"/>
<circle cx="66.3006" cy="64.0333" r="2.83333" fill="white"/>
<circle cx="82.1673" cy="64.0333" r="2.83333" fill="white"/>
<circle cx="2.83382" cy="79.3333" r="2.83333" fill="white"/>
<circle cx="18.7005" cy="79.3333" r="2.83333" fill="white"/>
<circle cx="34.5672" cy="79.3333" r="2.83333" fill="white"/>
<circle cx="50.4339" cy="79.3333" r="2.83333" fill="white"/>
<circle cx="66.3006" cy="79.3333" r="2.83333" fill="white"/>
<circle cx="82.1673" cy="79.3333" r="2.83333" fill="white"/>
<circle cx="2.83382" cy="95.8896" r="2.83333" fill="white"/>
<circle cx="18.7005" cy="95.8896" r="2.83333" fill="white"/>
<circle cx="34.5672" cy="95.8896" r="2.83333" fill="white"/>
<circle cx="50.4339" cy="95.8896" r="2.83333" fill="white"/>
<circle cx="66.3006" cy="95.8896" r="2.83333" fill="white"/>
<circle cx="82.1673" cy="95.8896" r="2.83333" fill="white"/>
<circle cx="2.83382" cy="111.19" r="2.83333" fill="white"/>
<circle cx="18.7005" cy="111.19" r="2.83333" fill="white"/>
<circle cx="34.5672" cy="111.19" r="2.83333" fill="white"/>
<circle cx="50.4339" cy="111.19" r="2.83333" fill="white"/>
<circle cx="66.3006" cy="111.19" r="2.83333" fill="white"/>
<circle cx="82.1673" cy="111.19" r="2.83333" fill="white"/>
<circle cx="2.83382" cy="126.49" r="2.83333" fill="white"/>
<circle cx="18.7005" cy="126.49" r="2.83333" fill="white"/>
<circle cx="34.5672" cy="126.49" r="2.83333" fill="white"/>
<circle cx="50.4339" cy="126.49" r="2.83333" fill="white"/>
<circle cx="66.3006" cy="126.49" r="2.83333" fill="white"/>
<circle cx="82.1673" cy="126.49" r="2.83333" fill="white"/>
</g>
</svg>
