<svg width="434" height="431" viewBox="0 0 434 431" fill="none" xmlns="http://www.w3.org/2000/svg">
<path d="M287.795 89.0053L292.761 88.8992L292.772 89.3991L295.255 89.346C295.971 89.3307 296.677 89.3721 297.37 89.4664L297.438 88.971C298.911 89.1716 300.324 89.6036 301.631 90.2356L301.414 90.6858C302.689 91.302 303.861 92.1155 304.883 93.0951L305.229 92.734C306.278 93.7385 307.177 94.9115 307.879 96.2216L307.439 96.4579C307.769 97.0741 308.055 97.7219 308.29 98.3979L309.108 100.743L309.58 100.578L311.216 105.268L310.744 105.433L312.379 110.123L312.851 109.959L314.487 114.649L314.015 114.813L315.65 119.503L316.122 119.339L317.758 124.029L317.286 124.194L318.921 128.884L319.393 128.719L321.029 133.409L320.557 133.574L322.192 138.264L322.664 138.099L324.3 142.79L323.828 142.954L325.463 147.644L325.935 147.48L327.571 152.17L327.099 152.334L328.734 157.025L329.206 156.86L330.842 161.55L330.37 161.715L332.005 166.405L332.477 166.24L334.113 170.93L333.641 171.095L335.276 175.785L335.748 175.62L337.384 180.311L336.912 180.475L338.547 185.165L339.019 185.001L340.655 189.691L340.183 189.856L341.818 194.546L342.29 194.381L343.926 199.071L343.453 199.236L345.089 203.926L345.561 203.761L347.197 208.451L346.724 208.616L348.36 213.306L348.832 213.142L350.468 217.832L349.995 217.996L351.631 222.686L352.103 222.522L353.739 227.212L353.266 227.377L354.902 232.067L355.374 231.902L357.01 236.592L356.537 236.757L358.173 241.447L358.645 241.282L360.281 245.972L359.808 246.137L361.444 250.827L361.916 250.663L363.551 255.353L363.079 255.517L364.715 260.208L365.187 260.043L366.822 264.733L366.35 264.898L367.168 267.243C367.404 267.919 367.583 268.604 367.707 269.292L368.199 269.203C368.464 270.666 368.489 272.143 368.293 273.582L367.797 273.514C367.605 274.917 367.193 276.283 366.578 277.559L367.028 277.776C366.397 279.084 365.559 280.301 364.53 281.374L364.169 281.028C363.685 281.533 363.158 282.004 362.588 282.438L360.61 283.94L360.912 284.338L356.957 287.343L356.655 286.945L352.7 289.949L353.002 290.348L349.047 293.352L348.744 292.954L344.789 295.959L345.092 296.357L341.136 299.362L340.834 298.964L336.879 301.969L337.181 302.367L333.226 305.371L332.924 304.973L328.968 307.978L329.271 308.376L325.316 311.381L325.013 310.983L321.058 313.988L321.361 314.386L317.405 317.391L317.103 316.992L313.148 319.997L313.45 320.395L309.495 323.4L309.192 323.002L305.237 326.007L305.54 326.405L301.585 329.41L301.282 329.012L297.327 332.016L297.629 332.414L293.674 335.419L293.372 335.021L289.417 338.026L289.719 338.424L285.764 341.429L285.461 341.031L281.506 344.035L281.809 344.434L277.853 347.438L277.551 347.04L273.596 350.045L273.898 350.443L269.943 353.448L269.641 353.05L265.685 356.055L265.988 356.453L262.033 359.457L261.73 359.059L257.775 362.064L258.077 362.462L254.122 365.467L253.82 365.069L249.865 368.074L250.167 368.472L246.212 371.477L245.909 371.078L241.954 374.083L242.257 374.481L238.302 377.486L237.999 377.088L234.044 380.093L234.346 380.491L230.391 383.496L230.089 383.098L226.134 386.102L226.436 386.5L222.481 389.505L222.178 389.107L220.201 390.609C219.631 391.042 219.035 391.425 218.419 391.755L218.655 392.196C217.346 392.899 215.949 393.38 214.519 393.638L214.431 393.146C213.037 393.397 211.611 393.427 210.207 393.236L210.14 393.731C208.701 393.535 207.284 393.114 205.946 392.467L206.164 392.017C205.534 391.713 204.922 391.357 204.334 390.948L202.294 389.532L202.009 389.943L197.929 387.11L198.214 386.699L194.134 383.866L193.849 384.276L189.769 381.443L190.054 381.033L185.974 378.2L185.689 378.61L181.609 375.777L181.895 375.367L177.815 372.533L177.529 372.944L173.449 370.111L173.735 369.7L169.655 366.867L169.37 367.278L165.29 364.445L165.575 364.034L161.495 361.201L161.21 361.612L157.13 358.779L157.415 358.368L153.335 355.535L153.05 355.946L148.97 353.113L149.255 352.702L145.175 349.869L144.89 350.279L140.81 347.446L141.095 347.036L137.015 344.203L136.73 344.613L132.65 341.78L132.935 341.37L128.855 338.536L128.57 338.947L124.49 336.114L124.775 335.703L120.696 332.87L120.41 333.281L116.33 330.448L116.616 330.037L112.536 327.204L112.25 327.615L108.171 324.782L108.456 324.371L104.376 321.538L104.091 321.949L100.011 319.116L100.296 318.705L96.216 315.872L95.9308 316.283L91.8508 313.449L92.136 313.039L88.0561 310.206L87.7709 310.616L83.691 307.783L83.9762 307.373L79.8962 304.54L79.611 304.95L75.5311 302.117L75.8163 301.706L71.7364 298.873L71.4512 299.284L67.3712 296.451L67.6564 296.04L63.5765 293.207L63.2913 293.618L59.2114 290.785L59.4966 290.374L57.4566 288.958C56.8686 288.549 56.3211 288.1 55.816 287.617L55.4702 287.978C54.3965 286.95 53.5073 285.77 52.8208 284.49L53.2614 284.254C52.592 283.005 52.1223 281.659 51.8705 280.265L51.3785 280.354C51.1203 278.925 51.0829 277.448 51.2846 275.975L51.78 276.042C51.8748 275.35 52.0245 274.658 52.2311 273.972L52.9479 271.594L52.4692 271.45L53.9029 266.694L54.3816 266.839L55.8152 262.083L55.3365 261.939L56.7702 257.183L57.2489 257.327L58.6825 252.572L58.2038 252.427L59.6375 247.672L60.1162 247.816L61.5499 243.06L61.0711 242.916L62.5048 238.16L62.9835 238.304L64.4172 233.549L63.9384 233.404L65.3721 228.649L65.8508 228.793L67.2845 224.037L66.8057 223.893L68.2394 219.137L68.7181 219.282L70.1518 214.526L69.673 214.382L71.1067 209.626L71.5854 209.77L73.0191 205.014L72.5404 204.87L73.974 200.114L74.4527 200.259L75.8864 195.503L75.4077 195.359L76.8413 190.603L77.32 190.747L78.7537 185.992L78.275 185.847L79.7086 181.092L80.1873 181.236L81.621 176.48L81.1423 176.336L82.5759 171.58L83.0546 171.724L84.4883 166.969L84.0096 166.824L85.4432 162.069L85.9219 162.213L87.3556 157.457L86.8769 157.313L88.3105 152.557L88.7892 152.702L90.2229 147.946L89.7442 147.802L91.1778 143.046L91.6565 143.19L93.0902 138.434L92.6115 138.29L94.0451 133.534L94.5238 133.679L95.9575 128.923L95.4788 128.779L96.9124 124.023L97.3911 124.167L98.8248 119.412L98.3461 119.267L99.7797 114.512L100.258 114.656L101.692 109.9L101.213 109.756L102.647 105L103.126 105.144L103.843 102.767C104.049 102.081 104.307 101.422 104.611 100.792L104.16 100.575C104.806 99.2358 105.654 98.0255 106.659 96.977L107.02 97.3231C108 96.3007 109.136 95.4379 110.384 94.7677L110.147 94.3272C111.427 93.6399 112.82 93.148 114.283 92.8847L114.371 93.3767C115.06 93.2529 115.764 93.1814 116.48 93.1661L118.963 93.1131L118.952 92.6132L123.918 92.5071L123.929 93.0069L128.895 92.9008L128.884 92.4009L133.85 92.2948L133.861 92.7947L138.827 92.6886L138.816 92.1887L143.782 92.0826L143.793 92.5825L148.758 92.4764L148.748 91.9765L153.714 91.8704L153.724 92.3703L158.69 92.2641L158.68 91.7643L163.646 91.6581L163.656 92.158L168.622 92.0519L168.612 91.552L173.578 91.4459L173.588 91.9458L178.554 91.8397L178.544 91.3398L183.51 91.2337L183.52 91.7336L188.486 91.6275L188.476 91.1276L193.442 91.0215L193.452 91.5213L198.418 91.4152L198.408 90.9154L203.374 90.8092L203.384 91.3091L208.35 91.203L208.34 90.7031L213.306 90.597L213.316 91.0969L218.282 90.9908L218.272 90.4909L223.237 90.3848L223.248 90.8847L228.214 90.7786L228.203 90.2787L233.169 90.1726L233.18 90.6724L238.146 90.5663L238.135 90.0664L243.101 89.9603L243.112 90.4602L248.078 90.3541L248.067 89.8542L253.033 89.7481L253.044 90.248L258.01 90.1419L257.999 89.642L262.965 89.5359L262.976 90.0358L267.942 89.9297L267.931 89.4298L272.897 89.3237L272.908 89.8235L277.874 89.7174L277.863 89.2175L282.829 89.1114L282.84 89.6113L287.806 89.5052L287.795 89.0053Z" stroke="#E0E0E0" stroke-dasharray="5 5"/>
</svg>
