<svg width="24" height="24" viewBox="0 0 24 18" fill="none" xmlns="http://www.w3.org/2000/svg">
<path d="M23.6732 8.21101L16.5312 1.069C16.0954 0.63325 15.3887 0.63325 14.953 1.069C14.5171 1.50484 14.5171 2.21137 14.953 2.64721L20.1899 7.88417L1.11594 7.88417C0.499673 7.88417 0 8.38385 0 9.00011C0 9.61629 0.499673 10.1161 1.11594 10.1161L20.1899 10.1161L14.9531 15.353C14.5173 15.7889 14.5173 16.4954 14.9531 16.9312C15.171 17.149 15.4566 17.2581 15.7422 17.2581C16.0278 17.2581 16.3134 17.149 16.5313 16.9312L23.6732 9.78922C24.109 9.35337 24.109 8.64685 23.6732 8.21101Z" fill="#000051"/>
</svg>
