<svg width="1883" height="158" viewBox="0 0 1883 158" fill="none" xmlns="http://www.w3.org/2000/svg">
<g filter="url(#filter0_d)">
<path d="M1883 108.701C1883 83.0744 1859.63 63.6711 1834.37 67.9962C1737.62 84.5628 1509.68 118.626 1271.15 118.626C955.987 118.626 856.094 4.74792e-05 543.926 3.84111e-05C259.544 3.01502e-05 45.2144 109.878 9.31276 129.439C5.95693 131.267 4.00051 134.75 4.00051 138.572C4.00052 144.497 8.80387 149.3 14.7292 149.3L1842.4 149.3C1864.82 149.3 1883 131.124 1883 108.701Z" fill="url(#paint0_linear)"/>
</g>
<defs>
<filter id="filter0_d" x="0.000488281" y="6.10352e-05" width="1887" height="157.3" filterUnits="userSpaceOnUse" color-interpolation-filters="sRGB">
<feFlood flood-opacity="0" result="BackgroundImageFix"/>
<feColorMatrix in="SourceAlpha" type="matrix" values="0 0 0 0 0 0 0 0 0 0 0 0 0 0 0 0 0 0 127 0"/>
<feOffset dy="4"/>
<feGaussianBlur stdDeviation="2"/>
<feColorMatrix type="matrix" values="0 0 0 0 0 0 0 0 0 0 0 0 0 0 0 0 0 0 0.08 0"/>
<feBlend mode="normal" in2="BackgroundImageFix" result="effect1_dropShadow"/>
<feBlend mode="normal" in="SourceGraphic" in2="effect1_dropShadow" result="shape"/>
</filter>
<linearGradient id="paint0_linear" x1="943.501" y1="2.69494e-05" x2="943.501" y2="149.3" gradientUnits="userSpaceOnUse">
<stop stop-color="#FFDB13"/>
<stop offset="1" stop-color="#FAAC2B"/>
</linearGradient>
</defs>
</svg>
